<svg width="1312" height="380" viewBox="0 0 1312 380" fill="none" xmlns="http://www.w3.org/2000/svg">
<rect width="1312" height="380" fill="#F2F2F2"/>
<path d="M148.428 50.8652V52.1719H147.467V54H145.832V52.1719H142.469V50.7129L145.592 45.5566H147.467V50.8652H148.428ZM143.705 50.8652H145.832V47.1973L143.705 50.8652ZM154.961 48.2988C155.477 48.8496 155.734 49.6582 155.734 50.7246C155.734 51.8496 155.48 52.707 154.973 53.2969C154.469 53.8867 153.818 54.1816 153.021 54.1816C152.514 54.1816 152.092 54.0547 151.756 53.8008C151.572 53.6602 151.393 53.4551 151.217 53.1855V56.5137H149.564V47.6133H151.164V48.5566C151.344 48.2793 151.535 48.0605 151.738 47.9004C152.109 47.6152 152.551 47.4727 153.062 47.4727C153.809 47.4727 154.441 47.748 154.961 48.2988ZM154.012 50.8066C154.012 50.3145 153.898 49.8789 153.672 49.5C153.449 49.1211 153.086 48.9316 152.582 48.9316C151.977 48.9316 151.561 49.2188 151.334 49.793C151.217 50.0977 151.158 50.4844 151.158 50.9531C151.158 51.6953 151.355 52.2168 151.75 52.5176C151.984 52.6934 152.262 52.7812 152.582 52.7812C153.047 52.7812 153.4 52.6016 153.643 52.2422C153.889 51.8828 154.012 51.4043 154.012 50.8066ZM162.637 54H160.557L159.455 52.084L158.348 54H156.32L158.5 50.7656L156.414 47.625H158.459L159.525 49.4766L160.568 47.625H162.555L160.457 50.7363L162.637 54Z" fill="black"/>
<rect x="168" y="40" width="20" height="20" fill="#F9D9D9"/>
<path d="M0 20L1312 19.9999" stroke="#CCCCCC"/>
<path d="M0 40L1312 39.9999" stroke="#CCCCCC"/>
<path d="M0 60L1312 59.9999" stroke="#CCCCCC"/>
<path d="M0 100L1312 99.9999" stroke="#CCCCCC"/>
<path d="M0 140L1312 140" stroke="#CCCCCC"/>
<path d="M0 180L1312 180" stroke="#CCCCCC"/>
<path d="M0 220L1312 220" stroke="#CCCCCC"/>
<path d="M0 260L1312 260" stroke="#CCCCCC"/>
<path d="M0 300L1312 300" stroke="#CCCCCC"/>
<path d="M0 340L1312 340" stroke="#CCCCCC"/>
<path d="M0 80L1312 79.9999" stroke="#CCCCCC"/>
<path d="M0 120L1312 120" stroke="#CCCCCC"/>
<path d="M0 160L1312 160" stroke="#CCCCCC"/>
<path d="M0 200L1312 200" stroke="#CCCCCC"/>
<path d="M0 240L1312 240" stroke="#CCCCCC"/>
<path d="M0 280L1312 280" stroke="#CCCCCC"/>
<path d="M0 320L1312 320" stroke="#CCCCCC"/>
<path d="M0 360L1312 360" stroke="#CCCCCC"/>
<path d="M274.991 34.1665H283.909V92.1573H317.252V100H274.991V34.1665ZM344.051 94.8014C349.399 94.8014 353.059 92.7848 355.031 88.7514C357.033 84.6881 358.034 80.1768 358.034 75.2172C358.034 70.7357 357.317 67.0907 355.883 64.2823C353.612 59.8605 349.698 57.6497 344.141 57.6497C339.211 57.6497 335.626 59.5319 333.385 63.2964C331.145 67.0608 330.024 71.6021 330.024 76.9202C330.024 82.0291 331.145 86.2866 333.385 89.6925C335.626 93.0985 339.181 94.8014 344.051 94.8014ZM344.365 50.6137C350.55 50.6137 355.778 52.6752 360.05 56.7982C364.323 60.9212 366.459 66.9862 366.459 74.9931C366.459 82.7312 364.577 89.1249 360.812 94.174C357.048 99.2232 351.207 101.748 343.289 101.748C336.687 101.748 331.443 99.522 327.559 95.0703C323.675 90.5888 321.733 84.5836 321.733 77.0546C321.733 68.9879 323.78 62.5644 327.873 57.7841C331.966 53.0038 337.464 50.6137 344.365 50.6137ZM376.318 52.003H383.982V60.2938C384.609 58.6804 386.148 56.7235 388.598 54.423C391.048 52.0926 393.871 50.9274 397.068 50.9274C397.217 50.9274 397.471 50.9423 397.83 50.9722C398.188 51.0021 398.801 51.0618 399.667 51.1515V59.6663C399.189 59.5767 398.741 59.517 398.323 59.4871C397.934 59.4572 397.501 59.4423 397.023 59.4423C392.96 59.4423 389.838 60.7568 387.657 63.386C385.476 65.9853 384.385 68.9879 384.385 72.3939V100H376.318V52.003ZM426.646 50.9274C430.052 50.9274 433.353 51.7341 436.55 53.3474C439.747 54.9309 442.182 56.9924 443.855 59.5319C445.468 61.9519 446.544 64.7753 447.081 68.002C447.559 70.2128 447.798 73.7383 447.798 78.5783H412.619C412.768 83.4483 413.918 87.3621 416.069 90.3199C418.22 93.2478 421.552 94.7118 426.063 94.7118C430.276 94.7118 433.637 93.3225 436.147 90.544C437.581 88.9307 438.596 87.0634 439.194 84.9421H447.126C446.917 86.7048 446.215 88.6767 445.02 90.8577C443.855 93.0088 442.54 94.7716 441.076 96.1459C438.626 98.536 435.594 100.149 431.979 100.986C430.037 101.464 427.841 101.703 425.391 101.703C419.416 101.703 414.351 99.5369 410.199 95.2048C406.046 90.8428 403.969 84.7479 403.969 76.9202C403.969 69.212 406.061 62.9528 410.243 58.1426C414.426 53.3325 419.894 50.9274 426.646 50.9274ZM439.508 72.1698C439.179 68.6742 438.417 65.8807 437.222 63.7893C435.011 59.9054 431.321 57.9634 426.153 57.9634C422.448 57.9634 419.341 59.3078 416.831 61.9967C414.322 64.6558 412.992 68.0468 412.843 72.1698H439.508ZM457.747 52.003H465.725V58.8149C467.637 56.4546 469.37 54.7367 470.923 53.6611C473.582 51.8386 476.6 50.9274 479.976 50.9274C483.8 50.9274 486.877 51.8685 489.208 53.7507C490.522 54.8263 491.717 56.4098 492.793 58.5012C494.586 55.9317 496.692 54.0346 499.112 52.8096C501.532 51.5548 504.251 50.9274 507.268 50.9274C513.722 50.9274 518.113 53.2578 520.444 57.9186C521.699 60.4282 522.326 63.8043 522.326 68.0468V100H513.946V66.6575C513.946 63.4607 513.139 61.2648 511.526 60.0697C509.942 58.8746 508 58.2771 505.7 58.2771C502.533 58.2771 499.799 59.3377 497.498 61.459C495.228 63.5802 494.093 67.1206 494.093 72.0801V100H485.891V68.6742C485.891 65.4176 485.503 63.0424 484.726 61.5486C483.501 59.3078 481.216 58.1874 477.869 58.1874C474.822 58.1874 472.043 59.3676 469.534 61.7278C467.054 64.0881 465.814 68.3605 465.814 74.545V100H457.747V52.003ZM559.747 52.227H567.948V100H559.747V52.227ZM559.747 34.1665H567.948V43.3088H559.747V34.1665ZM600.439 94.5774C604.203 94.5774 607.326 93.0088 609.805 89.8718C612.315 86.7048 613.57 81.9843 613.57 75.7102C613.57 71.8859 613.017 68.5995 611.912 65.8508C609.82 60.5626 605.996 57.9186 600.439 57.9186C594.852 57.9186 591.028 60.712 588.966 66.299C587.861 69.2867 587.308 73.081 587.308 77.682C587.308 81.3868 587.861 84.5388 588.966 87.138C591.058 92.0976 594.882 94.5774 600.439 94.5774ZM579.555 52.227H587.398V58.5908C589.011 56.4098 590.774 54.7217 592.686 53.5267C595.405 51.7341 598.602 50.8378 602.276 50.8378C607.714 50.8378 612.33 52.9291 616.124 57.1119C619.919 61.2648 621.816 67.2102 621.816 74.9483C621.816 85.4052 619.082 92.8744 613.615 97.3559C610.149 100.194 606.116 101.613 601.515 101.613C597.899 101.613 594.867 100.822 592.417 99.2381C590.983 98.3418 589.385 96.8032 587.622 94.6222V119.136H579.555V52.227ZM636.067 84.9421C636.306 87.631 636.978 89.6925 638.084 91.1266C640.115 93.7259 643.641 95.0255 648.66 95.0255C651.648 95.0255 654.277 94.3832 656.548 93.0985C658.818 91.7839 659.953 89.7672 659.953 87.0484C659.953 84.9869 659.042 83.4184 657.22 82.3428C656.055 81.6855 653.754 80.9237 650.318 80.0572L643.91 78.4439C639.817 77.4281 636.799 76.2928 634.857 75.0379C631.391 72.8569 629.658 69.8394 629.658 65.9853C629.658 61.444 631.287 57.7692 634.543 54.9608C637.83 52.1523 642.237 50.7481 647.764 50.7481C654.994 50.7481 660.207 52.8694 663.404 57.1119C665.406 59.8008 666.377 62.6988 666.317 65.806H658.699C658.549 63.9835 657.907 62.3254 656.772 60.8315C654.919 58.7103 651.707 57.6497 647.136 57.6497C644.089 57.6497 641.773 58.2323 640.19 59.3975C638.636 60.5626 637.86 62.1013 637.86 64.0134C637.86 66.1048 638.89 67.7779 640.952 69.0327C642.147 69.7796 643.91 70.4369 646.24 71.0046L651.573 72.3042C657.369 73.7084 661.253 75.0678 663.225 76.3824C666.362 78.4439 667.931 81.6855 667.931 86.1073C667.931 90.3797 666.302 94.0695 663.046 97.1766C659.819 100.284 654.889 101.837 648.257 101.837C641.116 101.837 636.052 100.224 633.064 96.9974C630.107 93.7408 628.523 89.7224 628.314 84.9421H636.067ZM685.229 52.003V83.8665C685.229 86.3164 685.618 88.3182 686.394 89.8718C687.829 92.7399 690.503 94.174 694.416 94.174C700.033 94.174 703.857 91.6644 705.889 86.6451C706.994 83.9562 707.547 80.2664 707.547 75.5757V52.003H715.614V100H707.995L708.085 92.9192C707.039 94.7417 705.74 96.2803 704.186 97.5352C701.109 100.045 697.374 101.3 692.982 101.3C686.14 101.3 681.48 99.0141 679 94.4429C677.655 91.993 676.983 88.7215 676.983 84.6284V52.003H685.229ZM728.252 52.003H736.229V58.8149C738.141 56.4546 739.874 54.7367 741.427 53.6611C744.087 51.8386 747.104 50.9274 750.48 50.9274C754.304 50.9274 757.382 51.8685 759.712 53.7507C761.027 54.8263 762.222 56.4098 763.297 58.5012C765.09 55.9317 767.196 54.0346 769.616 52.8096C772.036 51.5548 774.755 50.9274 777.773 50.9274C784.226 50.9274 788.618 53.2578 790.948 57.9186C792.203 60.4282 792.83 63.8043 792.83 68.0468V100H784.45V66.6575C784.45 63.4607 783.643 61.2648 782.03 60.0697C780.447 58.8746 778.505 58.2771 776.204 58.2771C773.037 58.2771 770.303 59.3377 768.003 61.459C765.732 63.5802 764.597 67.1206 764.597 72.0801V100H756.396V68.6742C756.396 65.4176 756.007 63.0424 755.231 61.5486C754.006 59.3078 751.72 58.1874 748.374 58.1874C745.326 58.1874 742.548 59.3676 740.038 61.7278C737.558 64.0881 736.319 68.3605 736.319 74.545V100H728.252V52.003ZM279.025 176.562C279.025 181.7 280.115 186.003 282.296 189.468C284.477 192.934 287.973 194.667 292.783 194.667C296.517 194.667 299.58 193.069 301.97 189.872C304.39 186.645 305.6 182.029 305.6 176.024C305.6 169.959 304.36 165.477 301.88 162.579C299.4 159.651 296.338 158.187 292.693 158.187C288.63 158.187 285.329 159.741 282.789 162.848C280.279 165.955 279.025 170.527 279.025 176.562ZM291.169 151.151C294.844 151.151 297.922 151.928 300.401 153.482C301.835 154.378 303.464 155.947 305.286 158.187V133.942H313.039V200H305.779V193.323C303.897 196.28 301.671 198.417 299.102 199.731C296.532 201.046 293.589 201.703 290.273 201.703C284.925 201.703 280.294 199.462 276.38 194.981C272.467 190.469 270.51 184.479 270.51 177.01C270.51 170.019 272.287 163.969 275.843 158.86C279.428 153.721 284.537 151.151 291.169 151.151ZM344.051 194.801C349.399 194.801 353.059 192.785 355.031 188.751C357.033 184.688 358.034 180.177 358.034 175.217C358.034 170.736 357.317 167.091 355.883 164.282C353.612 159.861 349.698 157.65 344.141 157.65C339.211 157.65 335.626 159.532 333.385 163.296C331.145 167.061 330.024 171.602 330.024 176.92C330.024 182.029 331.145 186.287 333.385 189.693C335.626 193.098 339.181 194.801 344.051 194.801ZM344.365 150.614C350.55 150.614 355.778 152.675 360.05 156.798C364.323 160.921 366.459 166.986 366.459 174.993C366.459 182.731 364.577 189.125 360.812 194.174C357.048 199.223 351.207 201.748 343.289 201.748C336.687 201.748 331.443 199.522 327.559 195.07C323.675 190.589 321.733 184.584 321.733 177.055C321.733 168.988 323.78 162.564 327.873 157.784C331.966 153.004 337.464 150.614 344.365 150.614ZM376.318 134.167H384.385V200H376.318V134.167ZM415.576 194.801C420.924 194.801 424.584 192.785 426.556 188.751C428.558 184.688 429.559 180.177 429.559 175.217C429.559 170.736 428.842 167.091 427.408 164.282C425.137 159.861 421.223 157.65 415.666 157.65C410.736 157.65 407.151 159.532 404.91 163.296C402.67 167.061 401.549 171.602 401.549 176.92C401.549 182.029 402.67 186.287 404.91 189.693C407.151 193.098 410.706 194.801 415.576 194.801ZM415.89 150.614C422.075 150.614 427.303 152.675 431.575 156.798C435.848 160.921 437.984 166.986 437.984 174.993C437.984 182.731 436.102 189.125 432.337 194.174C428.573 199.223 422.732 201.748 414.814 201.748C408.212 201.748 402.968 199.522 399.084 195.07C395.2 190.589 393.258 184.584 393.258 177.055C393.258 168.988 395.305 162.564 399.398 157.784C403.491 153.004 408.989 150.614 415.89 150.614ZM447.843 152.003H455.507V160.294C456.134 158.68 457.673 156.723 460.123 154.423C462.573 152.093 465.396 150.927 468.593 150.927C468.742 150.927 468.996 150.942 469.355 150.972C469.713 151.002 470.326 151.062 471.192 151.151V159.666C470.714 159.577 470.266 159.517 469.848 159.487C469.459 159.457 469.026 159.442 468.548 159.442C464.485 159.442 461.363 160.757 459.182 163.386C457.001 165.985 455.91 168.988 455.91 172.394V200H447.843V152.003ZM508.523 184.942C508.762 187.631 509.434 189.693 510.54 191.127C512.571 193.726 516.097 195.026 521.116 195.026C524.104 195.026 526.733 194.383 529.004 193.098C531.274 191.784 532.41 189.767 532.41 187.048C532.41 184.987 531.498 183.418 529.676 182.343C528.511 181.686 526.21 180.924 522.774 180.057L516.366 178.444C512.273 177.428 509.255 176.293 507.313 175.038C503.847 172.857 502.114 169.839 502.114 165.985C502.114 161.444 503.743 157.769 506.999 154.961C510.286 152.152 514.693 150.748 520.22 150.748C527.45 150.748 532.663 152.869 535.86 157.112C537.862 159.801 538.833 162.699 538.773 165.806H531.155C531.005 163.984 530.363 162.325 529.228 160.832C527.375 158.71 524.164 157.65 519.592 157.65C516.545 157.65 514.229 158.232 512.646 159.397C511.092 160.563 510.316 162.101 510.316 164.013C510.316 166.105 511.346 167.778 513.408 169.033C514.603 169.78 516.366 170.437 518.696 171.005L524.029 172.304C529.825 173.708 533.709 175.068 535.681 176.382C538.818 178.444 540.387 181.686 540.387 186.107C540.387 190.38 538.758 194.069 535.502 197.177C532.275 200.284 527.345 201.837 520.713 201.837C513.572 201.837 508.508 200.224 505.52 196.997C502.563 193.741 500.979 189.722 500.77 184.942H508.523ZM549.619 152.227H557.82V200H549.619V152.227ZM549.619 134.167H557.82V143.309H549.619V134.167ZM571.668 138.603H579.824V152.003H587.487V158.591H579.824V189.917C579.824 191.59 580.392 192.71 581.527 193.278C582.154 193.606 583.2 193.771 584.664 193.771C585.052 193.771 585.471 193.771 585.919 193.771C586.367 193.741 586.89 193.696 587.487 193.636V200C586.561 200.269 585.59 200.463 584.574 200.583C583.588 200.702 582.513 200.762 581.348 200.762C577.583 200.762 575.029 199.806 573.684 197.894C572.34 195.952 571.668 193.442 571.668 190.365V158.591H565.169V152.003H571.668V138.603ZM627.328 187.228C627.328 189.558 628.18 191.395 629.882 192.74C631.585 194.084 633.602 194.757 635.933 194.757C638.771 194.757 641.52 194.099 644.179 192.785C648.66 190.604 650.901 187.033 650.901 182.074V175.576C649.915 176.203 648.645 176.726 647.092 177.144C645.538 177.563 644.014 177.861 642.52 178.041L637.636 178.668C634.708 179.056 632.512 179.669 631.048 180.505C628.568 181.91 627.328 184.15 627.328 187.228ZM646.867 170.915C648.72 170.676 649.96 169.899 650.587 168.585C650.946 167.868 651.125 166.837 651.125 165.492C651.125 162.744 650.139 160.757 648.167 159.532C646.225 158.277 643.432 157.65 639.787 157.65C635.574 157.65 632.586 158.785 630.824 161.056C629.838 162.31 629.195 164.178 628.897 166.658H621.368C621.517 160.742 623.429 156.634 627.104 154.333C630.809 152.003 635.096 150.838 639.966 150.838C645.613 150.838 650.199 151.913 653.724 154.064C657.22 156.216 658.968 159.562 658.968 164.103V191.754C658.968 192.591 659.132 193.263 659.461 193.771C659.819 194.279 660.551 194.533 661.656 194.533C662.015 194.533 662.418 194.518 662.866 194.488C663.315 194.428 663.793 194.353 664.301 194.264V200.224C663.046 200.583 662.09 200.807 661.432 200.896C660.775 200.986 659.879 201.031 658.743 201.031C655.965 201.031 653.948 200.045 652.693 198.073C652.036 197.027 651.573 195.548 651.304 193.636C649.661 195.787 647.301 197.655 644.223 199.238C641.146 200.822 637.755 201.613 634.05 201.613C629.599 201.613 625.954 200.269 623.115 197.58C620.307 194.861 618.903 191.47 618.903 187.407C618.903 182.955 620.292 179.505 623.071 177.055C625.849 174.605 629.494 173.096 634.005 172.528L646.867 170.915ZM672.233 152.003H680.21V158.815C682.122 156.455 683.855 154.737 685.408 153.661C688.068 151.839 691.085 150.927 694.461 150.927C698.285 150.927 701.363 151.869 703.693 153.751C705.008 154.826 706.203 156.41 707.278 158.501C709.071 155.932 711.177 154.035 713.597 152.81C716.017 151.555 718.736 150.927 721.754 150.927C728.207 150.927 732.599 153.258 734.929 157.919C736.184 160.428 736.811 163.804 736.811 168.047V200H728.431V166.658C728.431 163.461 727.624 161.265 726.011 160.07C724.428 158.875 722.486 158.277 720.185 158.277C717.018 158.277 714.284 159.338 711.984 161.459C709.713 163.58 708.578 167.121 708.578 172.08V200H700.377V168.674C700.377 165.418 699.988 163.042 699.212 161.549C697.987 159.308 695.701 158.187 692.355 158.187C689.307 158.187 686.529 159.368 684.019 161.728C681.539 164.088 680.3 168.36 680.3 174.545V200H672.233V152.003ZM768.675 150.927C772.081 150.927 775.382 151.734 778.579 153.347C781.776 154.931 784.211 156.992 785.884 159.532C787.497 161.952 788.573 164.775 789.111 168.002C789.589 170.213 789.828 173.738 789.828 178.578H754.648C754.797 183.448 755.948 187.362 758.099 190.32C760.25 193.248 763.581 194.712 768.092 194.712C772.305 194.712 775.666 193.323 778.176 190.544C779.61 188.931 780.626 187.063 781.223 184.942H789.156C788.946 186.705 788.244 188.677 787.049 190.858C785.884 193.009 784.57 194.772 783.106 196.146C780.656 198.536 777.623 200.149 774.008 200.986C772.066 201.464 769.87 201.703 767.42 201.703C761.445 201.703 756.381 199.537 752.228 195.205C748.075 190.843 745.999 184.748 745.999 176.92C745.999 169.212 748.09 162.953 752.273 158.143C756.455 153.332 761.923 150.927 768.675 150.927ZM781.537 172.17C781.208 168.674 780.447 165.881 779.251 163.789C777.041 159.905 773.351 157.963 768.182 157.963C764.477 157.963 761.37 159.308 758.861 161.997C756.351 164.656 755.021 168.047 754.872 172.17H781.537ZM801.39 138.603H809.547V152.003H817.21V158.591H809.547V189.917C809.547 191.59 810.114 192.71 811.249 193.278C811.877 193.606 812.923 193.771 814.387 193.771C814.775 193.771 815.193 193.771 815.641 193.771C816.09 193.741 816.612 193.696 817.21 193.636V200C816.284 200.269 815.313 200.463 814.297 200.583C813.311 200.702 812.235 200.762 811.07 200.762C807.306 200.762 804.751 199.806 803.407 197.894C802.062 195.952 801.39 193.442 801.39 190.365V158.591H794.892V152.003H801.39V138.603Z" fill="#333333"/>
<path d="M274.913 252.569H278.629V276.732H292.522V280H274.913V252.569ZM303.688 277.834C305.916 277.834 307.441 276.994 308.263 275.313C309.097 273.62 309.514 271.74 309.514 269.674C309.514 267.807 309.215 266.288 308.618 265.118C307.672 263.275 306.041 262.354 303.725 262.354C301.671 262.354 300.178 263.138 299.244 264.707C298.31 266.275 297.843 268.168 297.843 270.383C297.843 272.512 298.31 274.286 299.244 275.705C300.178 277.124 301.659 277.834 303.688 277.834ZM303.819 259.422C306.396 259.422 308.574 260.281 310.354 261.999C312.134 263.717 313.025 266.244 313.025 269.58C313.025 272.805 312.24 275.469 310.672 277.573C309.103 279.676 306.67 280.728 303.371 280.728C300.619 280.728 298.435 279.801 296.816 277.946C295.198 276.079 294.389 273.576 294.389 270.439C294.389 267.078 295.242 264.402 296.947 262.41C298.653 260.418 300.943 259.422 303.819 259.422ZM317.133 260.001H320.326V263.456C320.587 262.784 321.228 261.968 322.249 261.01C323.27 260.039 324.446 259.553 325.778 259.553C325.84 259.553 325.946 259.559 326.096 259.572C326.245 259.584 326.5 259.609 326.861 259.646V263.194C326.662 263.157 326.475 263.132 326.301 263.12C326.139 263.107 325.959 263.101 325.76 263.101C324.067 263.101 322.766 263.649 321.857 264.744C320.948 265.827 320.494 267.078 320.494 268.497V280H317.133V260.001ZM338.102 259.553C339.522 259.553 340.897 259.889 342.229 260.561C343.561 261.221 344.576 262.08 345.273 263.138C345.945 264.147 346.393 265.323 346.617 266.667C346.816 267.589 346.916 269.058 346.916 271.074H332.258C332.32 273.103 332.799 274.734 333.696 275.967C334.592 277.187 335.98 277.797 337.86 277.797C339.615 277.797 341.015 277.218 342.061 276.06C342.659 275.388 343.082 274.61 343.331 273.726H346.636C346.549 274.46 346.256 275.282 345.758 276.191C345.273 277.087 344.725 277.821 344.115 278.394C343.094 279.39 341.831 280.062 340.324 280.411C339.515 280.61 338.6 280.71 337.58 280.71C335.09 280.71 332.98 279.807 331.249 278.002C329.519 276.184 328.654 273.645 328.654 270.383C328.654 267.172 329.525 264.564 331.268 262.559C333.011 260.555 335.289 259.553 338.102 259.553ZM343.462 268.404C343.325 266.948 343.007 265.784 342.509 264.912C341.588 263.294 340.051 262.485 337.897 262.485C336.353 262.485 335.059 263.045 334.013 264.165C332.967 265.273 332.413 266.686 332.351 268.404H343.462ZM351.061 260.001H354.385V262.84C355.182 261.856 355.904 261.14 356.551 260.692C357.659 259.933 358.917 259.553 360.323 259.553C361.917 259.553 363.199 259.945 364.17 260.729C364.718 261.178 365.216 261.837 365.664 262.709C366.411 261.638 367.288 260.848 368.297 260.337C369.305 259.815 370.438 259.553 371.695 259.553C374.384 259.553 376.214 260.524 377.185 262.466C377.708 263.512 377.969 264.918 377.969 266.686V280H374.477V266.107C374.477 264.775 374.141 263.86 373.469 263.362C372.809 262.864 372 262.615 371.042 262.615C369.722 262.615 368.583 263.057 367.624 263.941C366.678 264.825 366.205 266.3 366.205 268.367V280H362.788V266.948C362.788 265.591 362.626 264.601 362.303 263.979C361.792 263.045 360.84 262.578 359.446 262.578C358.176 262.578 357.018 263.07 355.972 264.053C354.939 265.037 354.423 266.817 354.423 269.394V280H351.061V260.001ZM393.561 260.095H396.978V280H393.561V260.095ZM393.561 252.569H396.978V256.379H393.561V252.569ZM410.516 277.741C412.085 277.741 413.386 277.087 414.419 275.78C415.465 274.46 415.987 272.493 415.987 269.879C415.987 268.286 415.757 266.916 415.297 265.771C414.425 263.568 412.832 262.466 410.516 262.466C408.188 262.466 406.595 263.63 405.736 265.958C405.275 267.203 405.045 268.784 405.045 270.701C405.045 272.244 405.275 273.558 405.736 274.641C406.607 276.707 408.201 277.741 410.516 277.741ZM401.815 260.095H405.082V262.746C405.755 261.837 406.489 261.134 407.286 260.636C408.419 259.889 409.751 259.516 411.282 259.516C413.547 259.516 415.471 260.387 417.052 262.13C418.633 263.86 419.423 266.338 419.423 269.562C419.423 273.919 418.284 277.031 416.006 278.898C414.562 280.081 412.881 280.672 410.964 280.672C409.458 280.672 408.195 280.342 407.174 279.683C406.576 279.309 405.91 278.668 405.176 277.759V287.973H401.815V260.095ZM425.361 273.726C425.461 274.846 425.741 275.705 426.202 276.303C427.048 277.386 428.517 277.927 430.608 277.927C431.853 277.927 432.949 277.66 433.895 277.124C434.841 276.577 435.314 275.736 435.314 274.604C435.314 273.745 434.934 273.091 434.175 272.643C433.689 272.369 432.731 272.052 431.299 271.691L428.629 271.018C426.924 270.595 425.666 270.122 424.857 269.599C423.413 268.69 422.691 267.433 422.691 265.827C422.691 263.935 423.369 262.404 424.726 261.234C426.096 260.063 427.932 259.478 430.235 259.478C433.247 259.478 435.42 260.362 436.752 262.13C437.586 263.25 437.99 264.458 437.966 265.753H434.791C434.729 264.993 434.461 264.302 433.988 263.68C433.216 262.796 431.878 262.354 429.973 262.354C428.704 262.354 427.739 262.597 427.079 263.082C426.432 263.568 426.108 264.209 426.108 265.006C426.108 265.877 426.538 266.574 427.397 267.097C427.895 267.408 428.629 267.682 429.6 267.919L431.822 268.46C434.237 269.045 435.855 269.612 436.677 270.159C437.984 271.018 438.638 272.369 438.638 274.211C438.638 275.992 437.959 277.529 436.602 278.824C435.258 280.118 433.204 280.766 430.44 280.766C427.465 280.766 425.355 280.093 424.11 278.749C422.878 277.392 422.218 275.718 422.131 273.726H425.361ZM445.846 260.001V273.278C445.846 274.299 446.007 275.133 446.331 275.78C446.929 276.975 448.043 277.573 449.673 277.573C452.014 277.573 453.607 276.527 454.454 274.435C454.914 273.315 455.145 271.778 455.145 269.823V260.001H458.506V280H455.331L455.369 277.05C454.933 277.809 454.392 278.45 453.744 278.973C452.462 280.019 450.906 280.542 449.076 280.542C446.225 280.542 444.283 279.589 443.25 277.685C442.69 276.664 442.41 275.301 442.41 273.595V260.001H445.846ZM463.772 260.001H467.095V262.84C467.892 261.856 468.614 261.14 469.261 260.692C470.369 259.933 471.627 259.553 473.033 259.553C474.627 259.553 475.909 259.945 476.88 260.729C477.428 261.178 477.926 261.837 478.374 262.709C479.121 261.638 479.998 260.848 481.007 260.337C482.015 259.815 483.148 259.553 484.405 259.553C487.094 259.553 488.924 260.524 489.895 262.466C490.418 263.512 490.679 264.918 490.679 266.686V280H487.188V266.107C487.188 264.775 486.851 263.86 486.179 263.362C485.519 262.864 484.71 262.615 483.752 262.615C482.432 262.615 481.293 263.057 480.335 263.941C479.388 264.825 478.915 266.3 478.915 268.367V280H475.498V266.948C475.498 265.591 475.336 264.601 475.013 263.979C474.502 263.045 473.55 262.578 472.156 262.578C470.886 262.578 469.728 263.07 468.683 264.053C467.649 265.037 467.133 266.817 467.133 269.394V280H463.772V260.001ZM276.594 310.234C276.594 312.375 277.048 314.168 277.957 315.612C278.865 317.056 280.322 317.778 282.326 317.778C283.882 317.778 285.158 317.112 286.154 315.78C287.162 314.435 287.667 312.512 287.667 310.01C287.667 307.483 287.15 305.616 286.117 304.408C285.084 303.188 283.808 302.578 282.289 302.578C280.596 302.578 279.22 303.225 278.162 304.52C277.116 305.815 276.594 307.719 276.594 310.234ZM281.654 299.646C283.185 299.646 284.467 299.97 285.501 300.617C286.098 300.991 286.777 301.644 287.536 302.578V292.476H290.766V320H287.741V317.218C286.957 318.45 286.03 319.34 284.959 319.888C283.888 320.436 282.662 320.71 281.28 320.71C279.052 320.71 277.123 319.776 275.492 317.909C273.861 316.029 273.046 313.533 273.046 310.421C273.046 307.508 273.786 304.987 275.268 302.858C276.762 300.717 278.89 299.646 281.654 299.646ZM303.688 317.834C305.916 317.834 307.441 316.994 308.263 315.313C309.097 313.62 309.514 311.74 309.514 309.674C309.514 307.807 309.215 306.288 308.618 305.118C307.672 303.275 306.041 302.354 303.725 302.354C301.671 302.354 300.178 303.138 299.244 304.707C298.31 306.275 297.843 308.168 297.843 310.383C297.843 312.512 298.31 314.286 299.244 315.705C300.178 317.124 301.659 317.834 303.688 317.834ZM303.819 299.422C306.396 299.422 308.574 300.281 310.354 301.999C312.134 303.717 313.025 306.244 313.025 309.58C313.025 312.805 312.24 315.469 310.672 317.573C309.103 319.676 306.67 320.728 303.371 320.728C300.619 320.728 298.435 319.801 296.816 317.946C295.198 316.079 294.389 313.576 294.389 310.439C294.389 307.078 295.242 304.402 296.947 302.41C298.653 300.418 300.943 299.422 303.819 299.422ZM317.133 292.569H320.494V320H317.133V292.569ZM333.49 317.834C335.718 317.834 337.243 316.994 338.065 315.313C338.899 313.62 339.316 311.74 339.316 309.674C339.316 307.807 339.017 306.288 338.42 305.118C337.474 303.275 335.843 302.354 333.527 302.354C331.473 302.354 329.98 303.138 329.046 304.707C328.112 306.275 327.646 308.168 327.646 310.383C327.646 312.512 328.112 314.286 329.046 315.705C329.98 317.124 331.461 317.834 333.49 317.834ZM333.621 299.422C336.198 299.422 338.376 300.281 340.156 301.999C341.937 303.717 342.827 306.244 342.827 309.58C342.827 312.805 342.042 315.469 340.474 317.573C338.905 319.676 336.472 320.728 333.173 320.728C330.422 320.728 328.237 319.801 326.618 317.946C325 316.079 324.191 313.576 324.191 310.439C324.191 307.078 325.044 304.402 326.749 302.41C328.455 300.418 330.745 299.422 333.621 299.422ZM346.935 300.001H350.128V303.456C350.389 302.784 351.03 301.968 352.051 301.01C353.072 300.039 354.248 299.553 355.58 299.553C355.643 299.553 355.748 299.559 355.898 299.572C356.047 299.584 356.302 299.609 356.663 299.646V303.194C356.464 303.157 356.277 303.132 356.103 303.12C355.941 303.107 355.761 303.101 355.562 303.101C353.869 303.101 352.568 303.649 351.659 304.744C350.75 305.827 350.296 307.078 350.296 308.497V320H346.935V300.001ZM372.218 313.726C372.318 314.846 372.598 315.705 373.058 316.303C373.905 317.386 375.374 317.927 377.465 317.927C378.71 317.927 379.805 317.66 380.751 317.124C381.698 316.577 382.171 315.736 382.171 314.604C382.171 313.745 381.791 313.091 381.032 312.643C380.546 312.369 379.588 312.052 378.156 311.691L375.486 311.018C373.78 310.595 372.523 310.122 371.714 309.599C370.27 308.69 369.548 307.433 369.548 305.827C369.548 303.935 370.226 302.404 371.583 301.234C372.952 300.063 374.789 299.478 377.092 299.478C380.104 299.478 382.276 300.362 383.608 302.13C384.443 303.25 384.847 304.458 384.822 305.753H381.648C381.586 304.993 381.318 304.302 380.845 303.68C380.073 302.796 378.735 302.354 376.83 302.354C375.56 302.354 374.596 302.597 373.936 303.082C373.289 303.568 372.965 304.209 372.965 305.006C372.965 305.877 373.394 306.574 374.253 307.097C374.751 307.408 375.486 307.682 376.457 307.919L378.679 308.46C381.094 309.045 382.712 309.612 383.534 310.159C384.841 311.018 385.494 312.369 385.494 314.211C385.494 315.992 384.816 317.529 383.459 318.824C382.115 320.118 380.061 320.766 377.297 320.766C374.322 320.766 372.212 320.093 370.967 318.749C369.734 317.392 369.075 315.718 368.987 313.726H372.218ZM389.341 300.095H392.758V320H389.341V300.095ZM389.341 292.569H392.758V296.379H389.341V292.569ZM398.528 294.418H401.927V300.001H405.12V302.746H401.927V315.799C401.927 316.496 402.163 316.963 402.636 317.199C402.898 317.336 403.333 317.404 403.943 317.404C404.105 317.404 404.279 317.404 404.466 317.404C404.653 317.392 404.871 317.373 405.12 317.348V320C404.734 320.112 404.329 320.193 403.906 320.243C403.495 320.293 403.047 320.317 402.562 320.317C400.993 320.317 399.929 319.919 399.368 319.122C398.808 318.313 398.528 317.268 398.528 315.985V302.746H395.821V300.001H398.528V294.418ZM421.72 314.678C421.72 315.649 422.075 316.415 422.784 316.975C423.494 317.535 424.334 317.815 425.305 317.815C426.488 317.815 427.633 317.541 428.741 316.994C430.608 316.085 431.542 314.597 431.542 312.531V309.823C431.131 310.085 430.602 310.302 429.955 310.477C429.307 310.651 428.673 310.776 428.05 310.85L426.015 311.112C424.795 311.273 423.88 311.529 423.27 311.877C422.237 312.462 421.72 313.396 421.72 314.678ZM429.861 307.881C430.633 307.782 431.15 307.458 431.411 306.91C431.561 306.611 431.635 306.182 431.635 305.622C431.635 304.477 431.225 303.649 430.403 303.138C429.594 302.615 428.43 302.354 426.911 302.354C425.156 302.354 423.911 302.827 423.177 303.773C422.766 304.296 422.498 305.074 422.374 306.107H419.237C419.299 303.642 420.095 301.931 421.627 300.972C423.17 300.001 424.957 299.516 426.986 299.516C429.339 299.516 431.249 299.964 432.718 300.86C434.175 301.756 434.903 303.151 434.903 305.043V316.564C434.903 316.913 434.972 317.193 435.109 317.404C435.258 317.616 435.563 317.722 436.024 317.722C436.173 317.722 436.341 317.716 436.528 317.703C436.714 317.678 436.914 317.647 437.125 317.61V320.093C436.602 320.243 436.204 320.336 435.93 320.373C435.656 320.411 435.283 320.429 434.81 320.429C433.652 320.429 432.812 320.019 432.289 319.197C432.015 318.761 431.822 318.145 431.71 317.348C431.025 318.245 430.042 319.023 428.76 319.683C427.478 320.342 426.065 320.672 424.521 320.672C422.666 320.672 421.147 320.112 419.965 318.992C418.795 317.859 418.209 316.446 418.209 314.753C418.209 312.898 418.788 311.46 419.946 310.439C421.104 309.419 422.623 308.79 424.502 308.553L429.861 307.881ZM440.43 300.001H443.754V302.84C444.551 301.856 445.273 301.14 445.92 300.692C447.028 299.933 448.285 299.553 449.692 299.553C451.286 299.553 452.568 299.945 453.539 300.729C454.087 301.178 454.584 301.837 455.033 302.709C455.78 301.638 456.657 300.848 457.666 300.337C458.674 299.815 459.807 299.553 461.064 299.553C463.753 299.553 465.583 300.524 466.554 302.466C467.077 303.512 467.338 304.918 467.338 306.686V320H463.846V306.107C463.846 304.775 463.51 303.86 462.838 303.362C462.178 302.864 461.369 302.615 460.41 302.615C459.091 302.615 457.952 303.057 456.993 303.941C456.047 304.825 455.574 306.3 455.574 308.367V320H452.157V306.948C452.157 305.591 451.995 304.601 451.671 303.979C451.161 303.045 450.209 302.578 448.815 302.578C447.545 302.578 446.387 303.07 445.341 304.053C444.308 305.037 443.791 306.817 443.791 309.394V320H440.43V300.001ZM480.615 299.553C482.034 299.553 483.409 299.889 484.741 300.561C486.073 301.221 487.088 302.08 487.785 303.138C488.457 304.147 488.905 305.323 489.13 306.667C489.329 307.589 489.428 309.058 489.428 311.074H474.77C474.832 313.103 475.311 314.734 476.208 315.967C477.104 317.187 478.492 317.797 480.372 317.797C482.127 317.797 483.528 317.218 484.573 316.06C485.171 315.388 485.594 314.61 485.843 313.726H489.148C489.061 314.46 488.768 315.282 488.271 316.191C487.785 317.087 487.237 317.821 486.627 318.394C485.607 319.39 484.343 320.062 482.837 320.411C482.028 320.61 481.113 320.71 480.092 320.71C477.602 320.71 475.492 319.807 473.762 318.002C472.031 316.184 471.166 313.645 471.166 310.383C471.166 307.172 472.038 304.564 473.78 302.559C475.523 300.555 477.801 299.553 480.615 299.553ZM485.974 308.404C485.837 306.948 485.519 305.784 485.021 304.912C484.1 303.294 482.563 302.485 480.409 302.485C478.866 302.485 477.571 303.045 476.525 304.165C475.48 305.273 474.926 306.686 474.863 308.404H485.974ZM494.246 294.418H497.644V300.001H500.837V302.746H497.644V315.799C497.644 316.496 497.881 316.963 498.354 317.199C498.615 317.336 499.051 317.404 499.661 317.404C499.823 317.404 499.997 317.404 500.184 317.404C500.371 317.392 500.588 317.373 500.837 317.348V320C500.452 320.112 500.047 320.193 499.624 320.243C499.213 320.293 498.765 320.317 498.279 320.317C496.711 320.317 495.646 319.919 495.086 319.122C494.526 318.313 494.246 317.268 494.246 315.985V302.746H491.538V300.001H494.246V294.418Z" fill="#333333"/>
</svg>
