<svg width="462" height="44" viewBox="0 0 462 44" fill="none" xmlns="http://www.w3.org/2000/svg">
<rect width="94" height="44" fill="white"/>
<path d="M23.9033 28H18.3223V15.0449H23.9033C24.7061 15.0566 25.374 15.1504 25.9072 15.3262C26.8154 15.625 27.5508 16.1729 28.1133 16.9697C28.5645 17.6143 28.8721 18.3115 29.0361 19.0615C29.2002 19.8115 29.2822 20.5264 29.2822 21.2061C29.2822 22.9287 28.9365 24.3877 28.2451 25.583C27.3076 27.1943 25.8604 28 23.9033 28ZM25.916 18.3496C25.5 17.6465 24.6768 17.2949 23.4463 17.2949H20.9502V25.75H23.4463C24.7236 25.75 25.6143 25.1201 26.1182 23.8604C26.3936 23.1689 26.5312 22.3457 26.5312 21.3906C26.5312 20.0723 26.3262 19.0586 25.916 18.3496ZM39.3281 25.1875C39.2637 25.7559 38.9678 26.333 38.4404 26.9189C37.6201 27.8506 36.4717 28.3164 34.9951 28.3164C33.7764 28.3164 32.7012 27.9238 31.7695 27.1387C30.8379 26.3535 30.3721 25.0762 30.3721 23.3066C30.3721 21.6484 30.791 20.377 31.6289 19.4922C32.4727 18.6074 33.5654 18.165 34.9072 18.165C35.7041 18.165 36.4219 18.3145 37.0605 18.6133C37.6992 18.9121 38.2266 19.3838 38.6426 20.0283C39.0176 20.5967 39.2607 21.2559 39.3721 22.0059C39.4365 22.4453 39.4629 23.0781 39.4512 23.9043H32.8945C32.9297 24.8652 33.2314 25.5391 33.7998 25.9258C34.1455 26.166 34.5615 26.2861 35.0479 26.2861C35.5635 26.2861 35.9824 26.1396 36.3047 25.8467C36.4805 25.6885 36.6357 25.4688 36.7705 25.1875H39.3281ZM36.8496 22.252C36.8086 21.5898 36.6064 21.0889 36.2432 20.749C35.8857 20.4033 35.4404 20.2305 34.9072 20.2305C34.3271 20.2305 33.876 20.4121 33.5537 20.7754C33.2373 21.1387 33.0381 21.6309 32.9561 22.252H36.8496ZM45.6387 14.9658V17.0049C45.498 16.9873 45.2607 16.9756 44.9268 16.9697C44.5986 16.958 44.3701 17.0312 44.2412 17.1895C44.1182 17.3418 44.0566 17.5117 44.0566 17.6992V18.5078H45.7002V20.2744H44.0566V28H41.5605V20.2744H40.1631V18.5078H41.5342V17.8926C41.5342 16.8672 41.707 16.1611 42.0527 15.7744C42.416 15.2002 43.292 14.9131 44.6807 14.9131C44.8389 14.9131 44.9824 14.9189 45.1113 14.9307C45.2402 14.9365 45.416 14.9482 45.6387 14.9658ZM47.502 19.457C48.1641 18.6133 49.3008 18.1914 50.9121 18.1914C51.9609 18.1914 52.8926 18.3994 53.707 18.8154C54.5215 19.2314 54.9287 20.0166 54.9287 21.1709V25.5654C54.9287 25.8701 54.9346 26.2393 54.9463 26.6729C54.9639 27.001 55.0137 27.2236 55.0957 27.3408C55.1777 27.458 55.3008 27.5547 55.4648 27.6309V28H52.7402C52.6641 27.8066 52.6113 27.625 52.582 27.4551C52.5527 27.2852 52.5293 27.0918 52.5117 26.875C52.166 27.25 51.7676 27.5693 51.3164 27.833C50.7773 28.1436 50.168 28.2988 49.4883 28.2988C48.6211 28.2988 47.9033 28.0527 47.335 27.5605C46.7725 27.0625 46.4912 26.3594 46.4912 25.4512C46.4912 24.2734 46.9453 23.4209 47.8535 22.8936C48.3516 22.6064 49.084 22.4014 50.0508 22.2783L50.9033 22.1729C51.3662 22.1143 51.6973 22.041 51.8965 21.9531C52.2539 21.8008 52.4326 21.5635 52.4326 21.2412C52.4326 20.8486 52.2949 20.5791 52.0195 20.4326C51.75 20.2803 51.3516 20.2041 50.8242 20.2041C50.2324 20.2041 49.8135 20.3506 49.5674 20.6436C49.3916 20.8604 49.2744 21.1533 49.2158 21.5225H46.7988C46.8516 20.6846 47.0859 19.9961 47.502 19.457ZM49.3652 26.1895C49.5996 26.3828 49.8867 26.4795 50.2266 26.4795C50.7656 26.4795 51.2607 26.3213 51.7119 26.0049C52.1689 25.6885 52.4062 25.1113 52.4238 24.2734V23.3418C52.2656 23.4414 52.1045 23.5234 51.9404 23.5879C51.7822 23.6465 51.5625 23.7021 51.2812 23.7549L50.7188 23.8604C50.1914 23.9541 49.8135 24.0684 49.585 24.2031C49.1982 24.4316 49.0049 24.7861 49.0049 25.2666C49.0049 25.6943 49.125 26.002 49.3652 26.1895ZM63.3047 26.6465C63.2812 26.6758 63.2227 26.7637 63.1289 26.9102C63.0352 27.0566 62.9238 27.1855 62.7949 27.2969C62.4023 27.6484 62.0215 27.8887 61.6523 28.0176C61.2891 28.1465 60.8613 28.2109 60.3691 28.2109C58.9512 28.2109 57.9961 27.7012 57.5039 26.6816C57.2285 26.1191 57.0908 25.29 57.0908 24.1943V18.4199H59.6572V24.1943C59.6572 24.7393 59.7217 25.1494 59.8506 25.4248C60.0791 25.9111 60.5273 26.1543 61.1953 26.1543C62.0508 26.1543 62.6367 25.8086 62.9531 25.1172C63.1172 24.7422 63.1992 24.2471 63.1992 23.6318V18.4199H65.7393V28H63.3047V26.6465ZM68.2178 15.0449H70.7227V28H68.2178V15.0449ZM77.5605 26.2158V28.0879L76.374 28.1318C75.1904 28.1729 74.3818 27.9678 73.9482 27.5166C73.667 27.2295 73.5264 26.7871 73.5264 26.1895V20.292H72.1904V18.5078H73.5264V15.8359H76.0049V18.5078H77.5605V20.292H76.0049V25.3545C76.0049 25.7471 76.0547 25.9932 76.1543 26.0928C76.2539 26.1865 76.5586 26.2334 77.0684 26.2334C77.1445 26.2334 77.2236 26.2334 77.3057 26.2334C77.3936 26.2275 77.4785 26.2217 77.5605 26.2158Z" fill="#00598C"/>
<rect x="241" y="1" width="84" height="42" fill="white"/>
<path d="M267.505 17.3389H261.01V20.3184H266.696V22.5684H261.01V28H258.32V15.0625H267.505V17.3389ZM277.111 19.6328C277.92 20.6465 278.324 21.8447 278.324 23.2275C278.324 24.6338 277.92 25.8379 277.111 26.8398C276.303 27.8359 275.075 28.334 273.429 28.334C271.782 28.334 270.555 27.8359 269.746 26.8398C268.938 25.8379 268.533 24.6338 268.533 23.2275C268.533 21.8447 268.938 20.6465 269.746 19.6328C270.555 18.6191 271.782 18.1123 273.429 18.1123C275.075 18.1123 276.303 18.6191 277.111 19.6328ZM273.42 20.2305C272.688 20.2305 272.122 20.4912 271.724 21.0127C271.331 21.5283 271.135 22.2666 271.135 23.2275C271.135 24.1885 271.331 24.9297 271.724 25.4512C272.122 25.9727 272.688 26.2334 273.42 26.2334C274.152 26.2334 274.715 25.9727 275.107 25.4512C275.5 24.9297 275.696 24.1885 275.696 23.2275C275.696 22.2666 275.5 21.5283 275.107 21.0127C274.715 20.4912 274.152 20.2305 273.42 20.2305ZM288.414 21.8564H285.848C285.801 21.499 285.681 21.1768 285.487 20.8896C285.206 20.5029 284.77 20.3096 284.178 20.3096C283.334 20.3096 282.757 20.7285 282.446 21.5664C282.282 22.0117 282.2 22.6035 282.2 23.3418C282.2 24.0449 282.282 24.6104 282.446 25.0381C282.745 25.835 283.308 26.2334 284.134 26.2334C284.72 26.2334 285.136 26.0752 285.382 25.7588C285.628 25.4424 285.777 25.0322 285.83 24.5283H288.388C288.329 25.29 288.054 26.0107 287.562 26.6904C286.776 27.7861 285.613 28.334 284.072 28.334C282.531 28.334 281.397 27.877 280.671 26.9629C279.944 26.0488 279.581 24.8623 279.581 23.4033C279.581 21.7568 279.982 20.4766 280.785 19.5625C281.588 18.6484 282.695 18.1914 284.107 18.1914C285.309 18.1914 286.29 18.4609 287.052 19C287.819 19.5391 288.273 20.4912 288.414 21.8564ZM296.289 26.6465C296.266 26.6758 296.207 26.7637 296.113 26.9102C296.02 27.0566 295.908 27.1855 295.779 27.2969C295.387 27.6484 295.006 27.8887 294.637 28.0176C294.273 28.1465 293.846 28.2109 293.354 28.2109C291.936 28.2109 290.98 27.7012 290.488 26.6816C290.213 26.1191 290.075 25.29 290.075 24.1943V18.4199H292.642V24.1943C292.642 24.7393 292.706 25.1494 292.835 25.4248C293.063 25.9111 293.512 26.1543 294.18 26.1543C295.035 26.1543 295.621 25.8086 295.938 25.1172C296.102 24.7422 296.184 24.2471 296.184 23.6318V18.4199H298.724V28H296.289V26.6465ZM307.75 18.8594C308.5 19.3398 308.931 20.166 309.042 21.3379H306.537C306.502 21.0156 306.411 20.7607 306.265 20.5732C305.989 20.2334 305.521 20.0635 304.858 20.0635C304.313 20.0635 303.924 20.1484 303.689 20.3184C303.461 20.4883 303.347 20.6875 303.347 20.916C303.347 21.2031 303.47 21.4111 303.716 21.54C303.962 21.6748 304.832 21.9062 306.326 22.2344C307.322 22.4688 308.069 22.8232 308.567 23.2979C309.06 23.7783 309.306 24.3789 309.306 25.0996C309.306 26.0488 308.951 26.8252 308.242 27.4287C307.539 28.0264 306.449 28.3252 304.973 28.3252C303.467 28.3252 302.354 28.0088 301.633 27.376C300.918 26.7373 300.561 25.9258 300.561 24.9414H303.101C303.153 25.3867 303.268 25.7031 303.443 25.8906C303.754 26.2246 304.328 26.3916 305.166 26.3916C305.658 26.3916 306.048 26.3184 306.335 26.1719C306.628 26.0254 306.774 25.8057 306.774 25.5127C306.774 25.2314 306.657 25.0176 306.423 24.8711C306.188 24.7246 305.318 24.4727 303.812 24.1152C302.729 23.8457 301.964 23.5088 301.519 23.1045C301.073 22.7061 300.851 22.1318 300.851 21.3818C300.851 20.4971 301.196 19.7383 301.888 19.1055C302.585 18.4668 303.563 18.1475 304.823 18.1475C306.019 18.1475 306.994 18.3848 307.75 18.8594Z" fill="#00598C"/>
<rect x="241" y="1" width="84" height="42" stroke="#00568C" stroke-width="2"/>
<rect width="84" height="44" transform="translate(126)" fill="#0079BF"/>
<path d="M152.032 28V22.2168H146.97V28H144.289V15.0449H146.97V19.9844H152.032V15.0449H154.722V28H152.032ZM165.102 19.6328C165.91 20.6465 166.314 21.8447 166.314 23.2275C166.314 24.6338 165.91 25.8379 165.102 26.8398C164.293 27.8359 163.065 28.334 161.419 28.334C159.772 28.334 158.545 27.8359 157.736 26.8398C156.928 25.8379 156.523 24.6338 156.523 23.2275C156.523 21.8447 156.928 20.6465 157.736 19.6328C158.545 18.6191 159.772 18.1123 161.419 18.1123C163.065 18.1123 164.293 18.6191 165.102 19.6328ZM161.41 20.2305C160.678 20.2305 160.112 20.4912 159.714 21.0127C159.321 21.5283 159.125 22.2666 159.125 23.2275C159.125 24.1885 159.321 24.9297 159.714 25.4512C160.112 25.9727 160.678 26.2334 161.41 26.2334C162.143 26.2334 162.705 25.9727 163.098 25.4512C163.49 24.9297 163.687 24.1885 163.687 23.2275C163.687 22.2666 163.49 21.5283 163.098 21.0127C162.705 20.4912 162.143 20.2305 161.41 20.2305ZM167.176 18.4199H169.988L171.983 25.4863L174.022 18.4199H176.712L173.258 28H170.612L167.176 18.4199ZM186.336 25.1875C186.271 25.7559 185.976 26.333 185.448 26.9189C184.628 27.8506 183.479 28.3164 182.003 28.3164C180.784 28.3164 179.709 27.9238 178.777 27.1387C177.846 26.3535 177.38 25.0762 177.38 23.3066C177.38 21.6484 177.799 20.377 178.637 19.4922C179.48 18.6074 180.573 18.165 181.915 18.165C182.712 18.165 183.43 18.3145 184.068 18.6133C184.707 18.9121 185.234 19.3838 185.65 20.0283C186.025 20.5967 186.269 21.2559 186.38 22.0059C186.444 22.4453 186.471 23.0781 186.459 23.9043H179.902C179.938 24.8652 180.239 25.5391 180.808 25.9258C181.153 26.166 181.569 26.2861 182.056 26.2861C182.571 26.2861 182.99 26.1396 183.312 25.8467C183.488 25.6885 183.644 25.4688 183.778 25.1875H186.336ZM183.857 22.252C183.816 21.5898 183.614 21.0889 183.251 20.749C182.894 20.4033 182.448 20.2305 181.915 20.2305C181.335 20.2305 180.884 20.4121 180.562 20.7754C180.245 21.1387 180.046 21.6309 179.964 22.252H183.857ZM192.972 20.7314C191.964 20.7314 191.287 21.0596 190.941 21.7158C190.748 22.085 190.651 22.6533 190.651 23.4209V28H188.129V18.4199H190.52V20.0898C190.906 19.4512 191.243 19.0146 191.53 18.7803C191.999 18.3877 192.608 18.1914 193.358 18.1914C193.405 18.1914 193.443 18.1943 193.473 18.2002C193.508 18.2002 193.581 18.2031 193.692 18.209V20.7754C193.534 20.7578 193.394 20.7461 193.271 20.7402C193.147 20.7344 193.048 20.7314 192.972 20.7314Z" fill="white"/>
<mask id="path-5-inside-1_151_839" fill="white">
<path d="M364 0H462V44H364V0Z"/>
</mask>
<path d="M364 0H462V44H364V0Z" fill="white"/>
<path d="M391.455 27.0332C390.488 27.918 389.252 28.3604 387.746 28.3604C385.883 28.3604 384.418 27.7627 383.352 26.5674C382.285 25.3662 381.752 23.7197 381.752 21.6279C381.752 19.3662 382.358 17.623 383.571 16.3984C384.626 15.332 385.968 14.7988 387.597 14.7988C389.776 14.7988 391.37 15.5137 392.378 16.9434C392.935 17.7461 393.233 18.5518 393.274 19.3604H390.567C390.392 18.7393 390.166 18.2705 389.891 17.9541C389.398 17.3916 388.669 17.1104 387.702 17.1104C386.718 17.1104 385.941 17.5088 385.373 18.3057C384.805 19.0967 384.521 20.2188 384.521 21.6719C384.521 23.125 384.819 24.2148 385.417 24.9414C386.021 25.6621 386.785 26.0225 387.711 26.0225C388.66 26.0225 389.384 25.7119 389.882 25.0908C390.157 24.7568 390.386 24.2559 390.567 23.5879H393.248C393.014 25 392.416 26.1484 391.455 27.0332ZM401.264 26.6465C401.24 26.6758 401.182 26.7637 401.088 26.9102C400.994 27.0566 400.883 27.1855 400.754 27.2969C400.361 27.6484 399.98 27.8887 399.611 28.0176C399.248 28.1465 398.82 28.2109 398.328 28.2109C396.91 28.2109 395.955 27.7012 395.463 26.6816C395.188 26.1191 395.05 25.29 395.05 24.1943V18.4199H397.616V24.1943C397.616 24.7393 397.681 25.1494 397.81 25.4248C398.038 25.9111 398.486 26.1543 399.154 26.1543C400.01 26.1543 400.596 25.8086 400.912 25.1172C401.076 24.7422 401.158 24.2471 401.158 23.6318V18.4199H403.698V28H401.264V26.6465ZM410.94 20.7314C409.933 20.7314 409.256 21.0596 408.91 21.7158C408.717 22.085 408.62 22.6533 408.62 23.4209V28H406.098V18.4199H408.488V20.0898C408.875 19.4512 409.212 19.0146 409.499 18.7803C409.968 18.3877 410.577 18.1914 411.327 18.1914C411.374 18.1914 411.412 18.1943 411.441 18.2002C411.477 18.2002 411.55 18.2031 411.661 18.209V20.7754C411.503 20.7578 411.362 20.7461 411.239 20.7402C411.116 20.7344 411.017 20.7314 410.94 20.7314ZM417.954 20.7314C416.946 20.7314 416.27 21.0596 415.924 21.7158C415.73 22.085 415.634 22.6533 415.634 23.4209V28H413.111V18.4199H415.502V20.0898C415.889 19.4512 416.226 19.0146 416.513 18.7803C416.981 18.3877 417.591 18.1914 418.341 18.1914C418.388 18.1914 418.426 18.1943 418.455 18.2002C418.49 18.2002 418.563 18.2031 418.675 18.209V20.7754C418.517 20.7578 418.376 20.7461 418.253 20.7402C418.13 20.7344 418.03 20.7314 417.954 20.7314ZM428.352 25.1875C428.287 25.7559 427.991 26.333 427.464 26.9189C426.644 27.8506 425.495 28.3164 424.019 28.3164C422.8 28.3164 421.725 27.9238 420.793 27.1387C419.861 26.3535 419.396 25.0762 419.396 23.3066C419.396 21.6484 419.814 20.377 420.652 19.4922C421.496 18.6074 422.589 18.165 423.931 18.165C424.728 18.165 425.445 18.3145 426.084 18.6133C426.723 18.9121 427.25 19.3838 427.666 20.0283C428.041 20.5967 428.284 21.2559 428.396 22.0059C428.46 22.4453 428.486 23.0781 428.475 23.9043H421.918C421.953 24.8652 422.255 25.5391 422.823 25.9258C423.169 26.166 423.585 26.2861 424.071 26.2861C424.587 26.2861 425.006 26.1396 425.328 25.8467C425.504 25.6885 425.659 25.4688 425.794 25.1875H428.352ZM425.873 22.252C425.832 21.5898 425.63 21.0889 425.267 20.749C424.909 20.4033 424.464 20.2305 423.931 20.2305C423.351 20.2305 422.899 20.4121 422.577 20.7754C422.261 21.1387 422.062 21.6309 421.979 22.252H425.873ZM434.68 20.2744C433.83 20.2744 433.247 20.6348 432.931 21.3555C432.767 21.7363 432.685 22.2227 432.685 22.8145V28H430.188V18.4375H432.605V19.835C432.928 19.3428 433.232 18.9883 433.52 18.7715C434.035 18.3848 434.688 18.1914 435.479 18.1914C436.47 18.1914 437.278 18.4521 437.905 18.9736C438.538 19.4893 438.854 20.3477 438.854 21.5488V28H436.288V22.1729C436.288 21.6689 436.221 21.2822 436.086 21.0127C435.84 20.5205 435.371 20.2744 434.68 20.2744ZM445.561 26.2158V28.0879L444.374 28.1318C443.19 28.1729 442.382 27.9678 441.948 27.5166C441.667 27.2295 441.526 26.7871 441.526 26.1895V20.292H440.19V18.5078H441.526V15.8359H444.005V18.5078H445.561V20.292H444.005V25.3545C444.005 25.7471 444.055 25.9932 444.154 26.0928C444.254 26.1865 444.559 26.2334 445.068 26.2334C445.145 26.2334 445.224 26.2334 445.306 26.2334C445.394 26.2275 445.479 26.2217 445.561 26.2158Z" fill="#00598C"/>
<path d="M462 40H364V48H462V40Z" fill="#FFD100" mask="url(#path-5-inside-1_151_839)"/>
</svg>
