<svg width="1440" height="680" viewBox="0 0 1440 680" fill="none" xmlns="http://www.w3.org/2000/svg">
<rect width="1440" height="680" fill="#F2F2F2"/>
<mask id="path-2-inside-1_151_839" fill="white">
<path d="M806 195H1126V239H806V195Z"/>
</mask>
<path d="M806 195H1126V239H806V195Z" fill="#F2F2F2"/>
<path d="M849.6 226L843.3 219.7C842.8 220.1 842.225 220.417 841.575 220.65C840.925 220.883 840.233 221 839.5 221C837.683 221 836.146 220.371 834.888 219.113C833.629 217.854 833 216.317 833 214.5C833 212.683 833.629 211.146 834.888 209.887C836.146 208.629 837.683 208 839.5 208C841.317 208 842.854 208.629 844.113 209.887C845.371 211.146 846 212.683 846 214.5C846 215.233 845.883 215.925 845.65 216.575C845.417 217.225 845.1 217.8 844.7 218.3L851 224.6L849.6 226ZM839.5 219C840.75 219 841.813 218.563 842.688 217.688C843.563 216.813 844 215.75 844 214.5C844 213.25 843.563 212.187 842.688 211.312C841.813 210.437 840.75 210 839.5 210C838.25 210 837.187 210.437 836.312 211.312C835.437 212.187 835 213.25 835 214.5C835 215.75 835.437 216.813 836.312 217.688C837.187 218.563 838.25 219 839.5 219Z" fill="#333333"/>
<path d="M864.234 219.297C864.271 219.948 864.424 220.477 864.695 220.883C865.211 221.643 866.12 222.023 867.422 222.023C868.005 222.023 868.536 221.94 869.016 221.773C869.943 221.451 870.406 220.872 870.406 220.039C870.406 219.414 870.211 218.969 869.82 218.703C869.424 218.443 868.805 218.216 867.961 218.023L866.406 217.672C865.391 217.443 864.672 217.19 864.25 216.914C863.521 216.435 863.156 215.719 863.156 214.766C863.156 213.734 863.513 212.888 864.227 212.227C864.94 211.565 865.951 211.234 867.258 211.234C868.461 211.234 869.482 211.526 870.32 212.109C871.164 212.688 871.586 213.615 871.586 214.891H870.125C870.047 214.276 869.88 213.805 869.625 213.477C869.151 212.878 868.346 212.578 867.211 212.578C866.294 212.578 865.635 212.771 865.234 213.156C864.833 213.542 864.633 213.99 864.633 214.5C864.633 215.062 864.867 215.474 865.336 215.734C865.643 215.901 866.339 216.109 867.422 216.359L869.031 216.727C869.807 216.904 870.406 217.146 870.828 217.453C871.557 217.99 871.922 218.768 871.922 219.789C871.922 221.06 871.458 221.969 870.531 222.516C869.609 223.062 868.536 223.336 867.312 223.336C865.885 223.336 864.768 222.971 863.961 222.242C863.154 221.518 862.758 220.536 862.773 219.297H864.234ZM877.188 214.445C877.781 214.445 878.357 214.586 878.914 214.867C879.471 215.143 879.896 215.503 880.188 215.945C880.469 216.367 880.656 216.859 880.75 217.422C880.833 217.807 880.875 218.422 880.875 219.266H874.742C874.768 220.115 874.969 220.797 875.344 221.312C875.719 221.823 876.299 222.078 877.086 222.078C877.82 222.078 878.406 221.836 878.844 221.352C879.094 221.07 879.271 220.745 879.375 220.375H880.758C880.721 220.682 880.599 221.026 880.391 221.406C880.188 221.781 879.958 222.089 879.703 222.328C879.276 222.745 878.747 223.026 878.117 223.172C877.779 223.255 877.396 223.297 876.969 223.297C875.927 223.297 875.044 222.919 874.32 222.164C873.596 221.404 873.234 220.341 873.234 218.977C873.234 217.633 873.599 216.542 874.328 215.703C875.057 214.865 876.01 214.445 877.188 214.445ZM879.43 218.148C879.372 217.539 879.24 217.052 879.031 216.688C878.646 216.01 878.003 215.672 877.102 215.672C876.456 215.672 875.914 215.906 875.477 216.375C875.039 216.839 874.807 217.43 874.781 218.148H879.43ZM883.688 220.773C883.688 221.18 883.836 221.5 884.133 221.734C884.43 221.969 884.781 222.086 885.188 222.086C885.682 222.086 886.161 221.971 886.625 221.742C887.406 221.362 887.797 220.74 887.797 219.875V218.742C887.625 218.852 887.404 218.943 887.133 219.016C886.862 219.089 886.596 219.141 886.336 219.172L885.484 219.281C884.974 219.349 884.591 219.456 884.336 219.602C883.904 219.846 883.688 220.237 883.688 220.773ZM887.094 217.93C887.417 217.888 887.633 217.753 887.742 217.523C887.805 217.398 887.836 217.219 887.836 216.984C887.836 216.505 887.664 216.159 887.32 215.945C886.982 215.727 886.495 215.617 885.859 215.617C885.125 215.617 884.604 215.815 884.297 216.211C884.125 216.43 884.013 216.755 883.961 217.188H882.648C882.674 216.156 883.008 215.44 883.648 215.039C884.294 214.633 885.042 214.43 885.891 214.43C886.875 214.43 887.674 214.617 888.289 214.992C888.898 215.367 889.203 215.951 889.203 216.742V221.562C889.203 221.708 889.232 221.826 889.289 221.914C889.352 222.003 889.479 222.047 889.672 222.047C889.734 222.047 889.805 222.044 889.883 222.039C889.961 222.029 890.044 222.016 890.133 222V223.039C889.914 223.102 889.747 223.141 889.633 223.156C889.518 223.172 889.362 223.18 889.164 223.18C888.68 223.18 888.328 223.008 888.109 222.664C887.995 222.482 887.914 222.224 887.867 221.891C887.581 222.266 887.169 222.591 886.633 222.867C886.096 223.143 885.505 223.281 884.859 223.281C884.083 223.281 883.448 223.047 882.953 222.578C882.464 222.104 882.219 221.513 882.219 220.805C882.219 220.029 882.461 219.427 882.945 219C883.43 218.573 884.065 218.31 884.852 218.211L887.094 217.93ZM891.555 214.633H892.891V216.078C893 215.797 893.268 215.456 893.695 215.055C894.122 214.648 894.615 214.445 895.172 214.445C895.198 214.445 895.242 214.448 895.305 214.453C895.367 214.458 895.474 214.469 895.625 214.484V215.969C895.542 215.953 895.464 215.943 895.391 215.938C895.323 215.932 895.247 215.93 895.164 215.93C894.456 215.93 893.911 216.159 893.531 216.617C893.151 217.07 892.961 217.594 892.961 218.188V223H891.555V214.633ZM900.07 214.391C901.013 214.391 901.779 214.62 902.367 215.078C902.961 215.536 903.318 216.326 903.438 217.445H902.07C901.987 216.93 901.797 216.503 901.5 216.164C901.203 215.82 900.727 215.648 900.07 215.648C899.174 215.648 898.534 216.086 898.148 216.961C897.898 217.529 897.773 218.229 897.773 219.062C897.773 219.901 897.951 220.607 898.305 221.18C898.659 221.753 899.216 222.039 899.977 222.039C900.56 222.039 901.021 221.862 901.359 221.508C901.703 221.148 901.94 220.659 902.07 220.039H903.438C903.281 221.148 902.891 221.961 902.266 222.477C901.641 222.987 900.841 223.242 899.867 223.242C898.773 223.242 897.901 222.844 897.25 222.047C896.599 221.245 896.273 220.245 896.273 219.047C896.273 217.578 896.63 216.435 897.344 215.617C898.057 214.799 898.966 214.391 900.07 214.391ZM904.844 211.484H906.25V215.766C906.583 215.344 906.883 215.047 907.148 214.875C907.602 214.578 908.167 214.43 908.844 214.43C910.057 214.43 910.88 214.854 911.312 215.703C911.547 216.167 911.664 216.81 911.664 217.633V223H910.219V217.727C910.219 217.112 910.141 216.661 909.984 216.375C909.729 215.917 909.25 215.688 908.547 215.688C907.964 215.688 907.435 215.888 906.961 216.289C906.487 216.69 906.25 217.448 906.25 218.562V223H904.844V211.484Z" fill="#666666"/>
<path d="M1126 238H806V240H1126V238Z" fill="#CCCCCC" mask="url(#path-2-inside-1_151_839)"/>
<mask id="path-6-outside-2_151_839" maskUnits="userSpaceOnUse" x="806" y="97" width="320" height="99" fill="black">
<rect fill="white" x="806" y="97" width="320" height="99"/>
<path d="M806 97H1126V195H806V97Z"/>
</mask>
<path d="M806 97H1126V195H806V97Z" fill="white"/>
<rect width="320" height="34" transform="translate(806 97)" fill="#2774AE"/>
<path fill-rule="evenodd" clip-rule="evenodd" d="M873.222 106.003L873.428 106L879 121.85H875.841L875.124 119.446H869.377L868.23 121.85H865.063L873.222 106.003ZM872.885 111.717C872.85 111.871 872.763 112.137 872.664 112.352C872.624 112.45 870.608 116.883 870.608 116.883H874.37C874.37 116.883 873.209 113.046 873.046 112.355C872.983 112.132 872.949 111.905 872.932 111.714C872.932 111.714 872.886 111.714 872.885 111.717ZM850.832 106.407C845.727 106.407 842.771 110.023 842.381 114.384C842.018 118.467 844.332 122.204 849.384 122.204C850.744 122.204 852.096 121.847 853.548 121.063L853.879 117.364C852.387 118.848 850.962 119.233 849.618 119.233C846.541 119.233 845.137 117.032 845.378 114.325C845.628 111.544 847.37 109.348 850.547 109.348C851.838 109.348 853.236 109.598 854.415 111.14L854.755 107.537C853.466 106.712 852.177 106.407 850.832 106.407ZM829.005 116.077C828.998 116.483 828.989 117.045 829.043 117.461C829.41 120.244 831.336 122.169 834.328 122.169C838.164 122.169 840.536 119.502 840.87 115.941L841.142 112.888L841.695 106.694H838.709L837.861 116.059C837.684 117.819 836.609 119.257 834.576 119.257C832.587 119.257 831.805 117.843 831.981 115.859L832.8 106.694H829.812L829.008 115.779C829.008 115.862 829.007 115.963 829.005 116.077ZM857.141 106.694H860.12L859.033 119.032H863.302C863.602 119.032 864.62 119.015 864.896 119C864.881 119.148 864.625 121.85 864.625 121.85H855.789L857.141 106.694Z" fill="white"/>
<path d="M1095.1 169V167H1113.04V169H1095.1ZM1095.1 164V162H1113.04V164H1095.1ZM1095.1 159V157H1113.04V159H1095.1Z" fill="#00598C"/>
<path d="M840.814 173H832.133V152.848H840.814C842.063 152.866 843.102 153.012 843.932 153.285C845.344 153.75 846.488 154.602 847.363 155.842C848.065 156.844 848.544 157.929 848.799 159.096C849.054 160.262 849.182 161.374 849.182 162.432C849.182 165.111 848.644 167.381 847.568 169.24C846.11 171.747 843.859 173 840.814 173ZM843.945 157.988C843.298 156.895 842.018 156.348 840.104 156.348H836.221V169.5H840.104C842.09 169.5 843.476 168.52 844.26 166.561C844.688 165.485 844.902 164.204 844.902 162.719C844.902 160.668 844.583 159.091 843.945 157.988ZM864.809 168.625C864.708 169.509 864.248 170.407 863.428 171.318C862.152 172.768 860.365 173.492 858.068 173.492C856.173 173.492 854.5 172.882 853.051 171.66C851.602 170.439 850.877 168.452 850.877 165.699C850.877 163.12 851.529 161.142 852.832 159.766C854.145 158.389 855.844 157.701 857.932 157.701C859.171 157.701 860.288 157.934 861.281 158.398C862.275 158.863 863.095 159.597 863.742 160.6C864.326 161.484 864.704 162.509 864.877 163.676C864.977 164.359 865.018 165.344 865 166.629H854.801C854.855 168.124 855.325 169.172 856.209 169.773C856.747 170.147 857.394 170.334 858.15 170.334C858.952 170.334 859.604 170.106 860.105 169.65C860.379 169.404 860.62 169.062 860.83 168.625H864.809ZM860.953 164.059C860.889 163.029 860.575 162.249 860.01 161.721C859.454 161.183 858.761 160.914 857.932 160.914C857.029 160.914 856.327 161.197 855.826 161.762C855.334 162.327 855.024 163.092 854.896 164.059H860.953ZM880.121 159.697C881.324 160.982 881.926 162.869 881.926 165.357C881.926 167.982 881.333 169.983 880.148 171.359C878.973 172.736 877.455 173.424 875.596 173.424C874.411 173.424 873.426 173.128 872.643 172.535C872.214 172.207 871.795 171.729 871.385 171.1V178.865H867.529V158.098H871.262V160.299C871.681 159.652 872.128 159.141 872.602 158.768C873.467 158.102 874.497 157.77 875.691 157.77C877.432 157.77 878.909 158.412 880.121 159.697ZM877.906 165.549C877.906 164.4 877.642 163.384 877.113 162.5C876.594 161.616 875.746 161.174 874.57 161.174C873.158 161.174 872.187 161.844 871.658 163.184C871.385 163.895 871.248 164.797 871.248 165.891C871.248 167.622 871.708 168.839 872.629 169.541C873.176 169.951 873.823 170.156 874.57 170.156C875.655 170.156 876.48 169.737 877.045 168.898C877.619 168.06 877.906 166.943 877.906 165.549ZM885.316 159.711C886.346 158.398 888.115 157.742 890.621 157.742C892.253 157.742 893.702 158.066 894.969 158.713C896.236 159.36 896.869 160.581 896.869 162.377V169.213C896.869 169.687 896.878 170.261 896.896 170.936C896.924 171.446 897.001 171.792 897.129 171.975C897.257 172.157 897.448 172.307 897.703 172.426V173H893.465C893.346 172.699 893.264 172.417 893.219 172.152C893.173 171.888 893.137 171.587 893.109 171.25C892.572 171.833 891.952 172.33 891.25 172.74C890.411 173.223 889.464 173.465 888.406 173.465C887.057 173.465 885.941 173.082 885.057 172.316C884.182 171.542 883.744 170.448 883.744 169.035C883.744 167.203 884.451 165.877 885.863 165.057C886.638 164.61 887.777 164.291 889.281 164.1L890.607 163.936C891.327 163.844 891.842 163.73 892.152 163.594C892.708 163.357 892.986 162.988 892.986 162.486C892.986 161.876 892.772 161.456 892.344 161.229C891.924 160.992 891.305 160.873 890.484 160.873C889.564 160.873 888.912 161.101 888.529 161.557C888.256 161.894 888.074 162.35 887.982 162.924H884.223C884.305 161.62 884.669 160.549 885.316 159.711ZM888.215 170.184C888.579 170.484 889.026 170.635 889.555 170.635C890.393 170.635 891.163 170.389 891.865 169.896C892.576 169.404 892.945 168.507 892.973 167.203V165.754C892.727 165.909 892.476 166.036 892.221 166.137C891.975 166.228 891.633 166.314 891.195 166.396L890.32 166.561C889.5 166.706 888.912 166.884 888.557 167.094C887.955 167.449 887.654 168.001 887.654 168.748C887.654 169.413 887.841 169.892 888.215 170.184ZM907.834 161.693C906.266 161.693 905.214 162.204 904.676 163.225C904.375 163.799 904.225 164.683 904.225 165.877V173H900.301V158.098H904.02V160.695C904.621 159.702 905.145 159.023 905.592 158.658C906.321 158.048 907.269 157.742 908.436 157.742C908.508 157.742 908.568 157.747 908.613 157.756C908.668 157.756 908.782 157.76 908.955 157.77V161.762C908.709 161.734 908.49 161.716 908.299 161.707C908.107 161.698 907.952 161.693 907.834 161.693ZM918.074 170.225V173.137L916.229 173.205C914.387 173.269 913.13 172.95 912.455 172.248C912.018 171.801 911.799 171.113 911.799 170.184V161.01H909.721V158.234H911.799V154.078H915.654V158.234H918.074V161.01H915.654V168.885C915.654 169.495 915.732 169.878 915.887 170.033C916.042 170.179 916.516 170.252 917.309 170.252C917.427 170.252 917.55 170.252 917.678 170.252C917.814 170.243 917.947 170.234 918.074 170.225ZM928.943 162.199C928.615 161.479 927.973 161.119 927.016 161.119C925.904 161.119 925.156 161.479 924.773 162.199C924.564 162.609 924.459 163.22 924.459 164.031V173H920.508V158.125H924.295V160.299C924.778 159.524 925.234 158.973 925.662 158.645C926.419 158.061 927.398 157.77 928.602 157.77C929.741 157.77 930.661 158.02 931.363 158.521C931.928 158.986 932.357 159.583 932.648 160.312C933.159 159.438 933.792 158.795 934.549 158.385C935.351 157.975 936.244 157.77 937.229 157.77C937.885 157.77 938.532 157.897 939.17 158.152C939.808 158.408 940.387 158.854 940.906 159.492C941.326 160.012 941.608 160.65 941.754 161.406C941.845 161.908 941.891 162.641 941.891 163.607L941.863 173H937.871V163.512C937.871 162.947 937.78 162.482 937.598 162.117C937.251 161.424 936.613 161.078 935.684 161.078C934.608 161.078 933.865 161.525 933.455 162.418C933.245 162.892 933.141 163.462 933.141 164.127V173H929.217V164.127C929.217 163.243 929.126 162.6 928.943 162.199ZM958.242 168.625C958.142 169.509 957.682 170.407 956.861 171.318C955.585 172.768 953.799 173.492 951.502 173.492C949.606 173.492 947.934 172.882 946.484 171.66C945.035 170.439 944.311 168.452 944.311 165.699C944.311 163.12 944.962 161.142 946.266 159.766C947.578 158.389 949.278 157.701 951.365 157.701C952.605 157.701 953.721 157.934 954.715 158.398C955.708 158.863 956.529 159.597 957.176 160.6C957.759 161.484 958.137 162.509 958.311 163.676C958.411 164.359 958.452 165.344 958.434 166.629H948.234C948.289 168.124 948.758 169.172 949.643 169.773C950.18 170.147 950.827 170.334 951.584 170.334C952.386 170.334 953.038 170.106 953.539 169.65C953.812 169.404 954.054 169.062 954.264 168.625H958.242ZM954.387 164.059C954.323 163.029 954.008 162.249 953.443 161.721C952.887 161.183 952.195 160.914 951.365 160.914C950.463 160.914 949.761 161.197 949.26 161.762C948.768 162.327 948.458 163.092 948.33 164.059H954.387ZM968.086 160.982C966.764 160.982 965.857 161.543 965.365 162.664C965.11 163.257 964.982 164.013 964.982 164.934V173H961.1V158.125H964.859V160.299C965.361 159.533 965.835 158.982 966.281 158.645C967.083 158.043 968.1 157.742 969.33 157.742C970.87 157.742 972.128 158.148 973.104 158.959C974.088 159.761 974.58 161.096 974.58 162.965V173H970.588V163.936C970.588 163.152 970.483 162.55 970.273 162.131C969.891 161.365 969.161 160.982 968.086 160.982ZM985.012 170.225V173.137L983.166 173.205C981.325 173.269 980.067 172.95 979.393 172.248C978.955 171.801 978.736 171.113 978.736 170.184V161.01H976.658V158.234H978.736V154.078H982.592V158.234H985.012V161.01H982.592V168.885C982.592 169.495 982.669 169.878 982.824 170.033C982.979 170.179 983.453 170.252 984.246 170.252C984.365 170.252 984.488 170.252 984.615 170.252C984.752 170.243 984.884 170.234 985.012 170.225ZM1010.26 152.848V156.416H1004.23V173H999.996V156.416H993.939V152.848H1010.26ZM1015.94 158.098V173H1011.99V158.098H1015.94ZM1015.94 152.725V156.32H1011.99V152.725H1015.94ZM1026.55 170.225V173.137L1024.7 173.205C1022.86 173.269 1021.6 172.95 1020.93 172.248C1020.49 171.801 1020.27 171.113 1020.27 170.184V161.01H1018.19V158.234H1020.27V154.078H1024.13V158.234H1026.55V161.01H1024.13V168.885C1024.13 169.495 1024.2 169.878 1024.36 170.033C1024.51 170.179 1024.99 170.252 1025.78 170.252C1025.9 170.252 1026.02 170.252 1026.15 170.252C1026.29 170.243 1026.42 170.234 1026.55 170.225ZM1029.13 152.848H1033.03V173H1029.13V152.848ZM1049.6 168.625C1049.5 169.509 1049.04 170.407 1048.22 171.318C1046.94 172.768 1045.15 173.492 1042.86 173.492C1040.96 173.492 1039.29 172.882 1037.84 171.66C1036.39 170.439 1035.67 168.452 1035.67 165.699C1035.67 163.12 1036.32 161.142 1037.62 159.766C1038.93 158.389 1040.63 157.701 1042.72 157.701C1043.96 157.701 1045.08 157.934 1046.07 158.398C1047.06 158.863 1047.88 159.597 1048.53 160.6C1049.11 161.484 1049.49 162.509 1049.67 163.676C1049.77 164.359 1049.81 165.344 1049.79 166.629H1039.59C1039.64 168.124 1040.11 169.172 1041 169.773C1041.54 170.147 1042.18 170.334 1042.94 170.334C1043.74 170.334 1044.39 170.106 1044.89 169.65C1045.17 169.404 1045.41 169.062 1045.62 168.625H1049.6ZM1045.74 164.059C1045.68 163.029 1045.36 162.249 1044.8 161.721C1044.24 161.183 1043.55 160.914 1042.72 160.914C1041.82 160.914 1041.12 161.197 1040.62 161.762C1040.12 162.327 1039.81 163.092 1039.69 164.059H1045.74Z" fill="#333333"/>
<path d="M806 97H1126H806ZM1126 196H806V194H1126V196ZM806 195V97V195ZM1126 97V195V97Z" fill="#CCCCCC" mask="url(#path-6-outside-2_151_839)"/>
<mask id="path-11-inside-3_151_839" fill="white">
<path d="M806 239H1126V283H806V239Z"/>
</mask>
<path d="M806 239H1126V283H806V239Z" fill="white"/>
<path d="M833.422 267H831.18V255.484H834.68L836.773 264.539L838.852 255.484H842.312V267H840.07V259.211C840.07 258.987 840.073 258.674 840.078 258.273C840.083 257.867 840.086 257.555 840.086 257.336L837.906 267H835.57L833.406 257.336C833.406 257.555 833.409 257.867 833.414 258.273C833.419 258.674 833.422 258.987 833.422 259.211V267ZM851.469 259.562C852.188 260.464 852.547 261.529 852.547 262.758C852.547 264.008 852.188 265.078 851.469 265.969C850.75 266.854 849.659 267.297 848.195 267.297C846.732 267.297 845.641 266.854 844.922 265.969C844.203 265.078 843.844 264.008 843.844 262.758C843.844 261.529 844.203 260.464 844.922 259.562C845.641 258.661 846.732 258.211 848.195 258.211C849.659 258.211 850.75 258.661 851.469 259.562ZM848.188 260.094C847.536 260.094 847.034 260.326 846.68 260.789C846.331 261.247 846.156 261.904 846.156 262.758C846.156 263.612 846.331 264.271 846.68 264.734C847.034 265.198 847.536 265.43 848.188 265.43C848.839 265.43 849.339 265.198 849.688 264.734C850.036 264.271 850.211 263.612 850.211 262.758C850.211 261.904 850.036 261.247 849.688 260.789C849.339 260.326 848.839 260.094 848.188 260.094ZM858.773 267.227C858.07 267.227 857.505 267.086 857.078 266.805C856.823 266.638 856.547 266.346 856.25 265.93V267H854.07V255.5H856.289V259.594C856.57 259.198 856.88 258.896 857.219 258.688C857.62 258.427 858.13 258.297 858.75 258.297C859.87 258.297 860.745 258.701 861.375 259.508C862.01 260.315 862.328 261.357 862.328 262.633C862.328 263.956 862.016 265.052 861.391 265.922C860.766 266.792 859.893 267.227 858.773 267.227ZM859.992 262.867C859.992 262.263 859.914 261.763 859.758 261.367C859.461 260.617 858.914 260.242 858.117 260.242C857.31 260.242 856.755 260.609 856.453 261.344C856.297 261.734 856.219 262.24 856.219 262.859C856.219 263.589 856.38 264.193 856.703 264.672C857.026 265.151 857.518 265.391 858.18 265.391C858.753 265.391 859.198 265.159 859.516 264.695C859.833 264.232 859.992 263.622 859.992 262.867ZM866.219 258.484V267H863.961V258.484H866.219ZM866.219 255.414V257.469H863.961V255.414H866.219ZM868.43 255.484H870.656V267H868.43V255.484ZM880.125 264.5C880.068 265.005 879.805 265.518 879.336 266.039C878.607 266.867 877.586 267.281 876.273 267.281C875.19 267.281 874.234 266.932 873.406 266.234C872.578 265.536 872.164 264.401 872.164 262.828C872.164 261.354 872.536 260.224 873.281 259.438C874.031 258.651 875.003 258.258 876.195 258.258C876.904 258.258 877.542 258.391 878.109 258.656C878.677 258.922 879.146 259.341 879.516 259.914C879.849 260.419 880.065 261.005 880.164 261.672C880.221 262.062 880.245 262.625 880.234 263.359H874.406C874.438 264.214 874.706 264.812 875.211 265.156C875.518 265.37 875.888 265.477 876.32 265.477C876.779 265.477 877.151 265.346 877.438 265.086C877.594 264.945 877.732 264.75 877.852 264.5H880.125ZM877.922 261.891C877.885 261.302 877.706 260.857 877.383 260.555C877.065 260.247 876.669 260.094 876.195 260.094C875.68 260.094 875.279 260.255 874.992 260.578C874.711 260.901 874.534 261.339 874.461 261.891H877.922ZM886.375 255.484H888.781V264.93H894.484V267H886.375V255.484ZM898.266 258.484V267H896.008V258.484H898.266ZM898.266 255.414V257.469H896.008V255.414H898.266ZM904.438 260.133C903.682 260.133 903.164 260.453 902.883 261.094C902.737 261.432 902.664 261.865 902.664 262.391V267H900.445V258.5H902.594V259.742C902.88 259.305 903.151 258.99 903.406 258.797C903.865 258.453 904.445 258.281 905.148 258.281C906.029 258.281 906.747 258.513 907.305 258.977C907.867 259.435 908.148 260.198 908.148 261.266V267H905.867V261.82C905.867 261.372 905.807 261.029 905.688 260.789C905.469 260.352 905.052 260.133 904.438 260.133ZM918.023 267H915.336L913.297 263.359L912.375 264.32V267H910.188V255.523H912.375V261.727L915.148 258.523H917.906L914.93 261.781L918.023 267Z" fill="#00598C"/>
<path d="M1126 282H806V284H1126V282Z" fill="#CCCCCC" mask="url(#path-11-inside-3_151_839)"/>
<path d="M1098 263L1099.41 264.41L1104 259.83L1108.59 264.41L1110 263L1104 257L1098 263Z" fill="#00598C"/>
<path d="M1082 283H1081V284H1082V283ZM1126 282H1082V284H1126V282ZM1083 283V239H1081V283H1083Z" fill="#CCCCCC" mask="url(#path-14-inside-4_151_839)"/>
<mask id="path-17-inside-5_151_839" fill="white">
<path d="M806 283H1126V327H806V283Z"/>
</mask>
<path d="M806 283H1126V327H806V283Z" fill="#F2F2F2"/>
<path d="M857.422 311H855.18V299.484H858.68L860.773 308.539L862.852 299.484H866.312V311H864.07V303.211C864.07 302.987 864.073 302.674 864.078 302.273C864.083 301.867 864.086 301.555 864.086 301.336L861.906 311H859.57L857.406 301.336C857.406 301.555 857.409 301.867 857.414 302.273C857.419 302.674 857.422 302.987 857.422 303.211V311ZM875.469 303.562C876.188 304.464 876.547 305.529 876.547 306.758C876.547 308.008 876.188 309.078 875.469 309.969C874.75 310.854 873.659 311.297 872.195 311.297C870.732 311.297 869.641 310.854 868.922 309.969C868.203 309.078 867.844 308.008 867.844 306.758C867.844 305.529 868.203 304.464 868.922 303.562C869.641 302.661 870.732 302.211 872.195 302.211C873.659 302.211 874.75 302.661 875.469 303.562ZM872.188 304.094C871.536 304.094 871.034 304.326 870.68 304.789C870.331 305.247 870.156 305.904 870.156 306.758C870.156 307.612 870.331 308.271 870.68 308.734C871.034 309.198 871.536 309.43 872.188 309.43C872.839 309.43 873.339 309.198 873.688 308.734C874.036 308.271 874.211 307.612 874.211 306.758C874.211 305.904 874.036 305.247 873.688 304.789C873.339 304.326 872.839 304.094 872.188 304.094ZM882.773 311.227C882.07 311.227 881.505 311.086 881.078 310.805C880.823 310.638 880.547 310.346 880.25 309.93V311H878.07V299.5H880.289V303.594C880.57 303.198 880.88 302.896 881.219 302.688C881.62 302.427 882.13 302.297 882.75 302.297C883.87 302.297 884.745 302.701 885.375 303.508C886.01 304.315 886.328 305.357 886.328 306.633C886.328 307.956 886.016 309.052 885.391 309.922C884.766 310.792 883.893 311.227 882.773 311.227ZM883.992 306.867C883.992 306.263 883.914 305.763 883.758 305.367C883.461 304.617 882.914 304.242 882.117 304.242C881.31 304.242 880.755 304.609 880.453 305.344C880.297 305.734 880.219 306.24 880.219 306.859C880.219 307.589 880.38 308.193 880.703 308.672C881.026 309.151 881.518 309.391 882.18 309.391C882.753 309.391 883.198 309.159 883.516 308.695C883.833 308.232 883.992 307.622 883.992 306.867ZM890.219 302.484V311H887.961V302.484H890.219ZM890.219 299.414V301.469H887.961V299.414H890.219ZM892.43 299.484H894.656V311H892.43V299.484ZM904.125 308.5C904.068 309.005 903.805 309.518 903.336 310.039C902.607 310.867 901.586 311.281 900.273 311.281C899.19 311.281 898.234 310.932 897.406 310.234C896.578 309.536 896.164 308.401 896.164 306.828C896.164 305.354 896.536 304.224 897.281 303.438C898.031 302.651 899.003 302.258 900.195 302.258C900.904 302.258 901.542 302.391 902.109 302.656C902.677 302.922 903.146 303.341 903.516 303.914C903.849 304.419 904.065 305.005 904.164 305.672C904.221 306.062 904.245 306.625 904.234 307.359H898.406C898.438 308.214 898.706 308.812 899.211 309.156C899.518 309.37 899.888 309.477 900.32 309.477C900.779 309.477 901.151 309.346 901.438 309.086C901.594 308.945 901.732 308.75 901.852 308.5H904.125ZM901.922 305.891C901.885 305.302 901.706 304.857 901.383 304.555C901.065 304.247 900.669 304.094 900.195 304.094C899.68 304.094 899.279 304.255 898.992 304.578C898.711 304.901 898.534 305.339 898.461 305.891H901.922ZM910.375 299.484H912.781V308.93H918.484V311H910.375V299.484ZM922.266 302.484V311H920.008V302.484H922.266ZM922.266 299.414V301.469H920.008V299.414H922.266ZM928.438 304.133C927.682 304.133 927.164 304.453 926.883 305.094C926.737 305.432 926.664 305.865 926.664 306.391V311H924.445V302.5H926.594V303.742C926.88 303.305 927.151 302.99 927.406 302.797C927.865 302.453 928.445 302.281 929.148 302.281C930.029 302.281 930.747 302.513 931.305 302.977C931.867 303.435 932.148 304.198 932.148 305.266V311H929.867V305.82C929.867 305.372 929.807 305.029 929.688 304.789C929.469 304.352 929.052 304.133 928.438 304.133ZM942.023 311H939.336L937.297 307.359L936.375 308.32V311H934.188V299.523H936.375V305.727L939.148 302.523H941.906L938.93 305.781L942.023 311Z" fill="#00598C"/>
<path d="M1126 326H806V328H1126V326Z" fill="#CCCCCC" mask="url(#path-17-inside-5_151_839)"/>
<mask id="path-20-inside-6_151_839" fill="white">
<path d="M806 327H1126V371H806V327Z"/>
</mask>
<path d="M806 327H1126V371H806V327Z" fill="#E5E5E5"/>
<path d="M881.422 355H879.18V343.484H882.68L884.773 352.539L886.852 343.484H890.312V355H888.07V347.211C888.07 346.987 888.073 346.674 888.078 346.273C888.083 345.867 888.086 345.555 888.086 345.336L885.906 355H883.57L881.406 345.336C881.406 345.555 881.409 345.867 881.414 346.273C881.419 346.674 881.422 346.987 881.422 347.211V355ZM899.469 347.562C900.188 348.464 900.547 349.529 900.547 350.758C900.547 352.008 900.188 353.078 899.469 353.969C898.75 354.854 897.659 355.297 896.195 355.297C894.732 355.297 893.641 354.854 892.922 353.969C892.203 353.078 891.844 352.008 891.844 350.758C891.844 349.529 892.203 348.464 892.922 347.562C893.641 346.661 894.732 346.211 896.195 346.211C897.659 346.211 898.75 346.661 899.469 347.562ZM896.188 348.094C895.536 348.094 895.034 348.326 894.68 348.789C894.331 349.247 894.156 349.904 894.156 350.758C894.156 351.612 894.331 352.271 894.68 352.734C895.034 353.198 895.536 353.43 896.188 353.43C896.839 353.43 897.339 353.198 897.688 352.734C898.036 352.271 898.211 351.612 898.211 350.758C898.211 349.904 898.036 349.247 897.688 348.789C897.339 348.326 896.839 348.094 896.188 348.094ZM906.773 355.227C906.07 355.227 905.505 355.086 905.078 354.805C904.823 354.638 904.547 354.346 904.25 353.93V355H902.07V343.5H904.289V347.594C904.57 347.198 904.88 346.896 905.219 346.688C905.62 346.427 906.13 346.297 906.75 346.297C907.87 346.297 908.745 346.701 909.375 347.508C910.01 348.315 910.328 349.357 910.328 350.633C910.328 351.956 910.016 353.052 909.391 353.922C908.766 354.792 907.893 355.227 906.773 355.227ZM907.992 350.867C907.992 350.263 907.914 349.763 907.758 349.367C907.461 348.617 906.914 348.242 906.117 348.242C905.31 348.242 904.755 348.609 904.453 349.344C904.297 349.734 904.219 350.24 904.219 350.859C904.219 351.589 904.38 352.193 904.703 352.672C905.026 353.151 905.518 353.391 906.18 353.391C906.753 353.391 907.198 353.159 907.516 352.695C907.833 352.232 907.992 351.622 907.992 350.867ZM914.219 346.484V355H911.961V346.484H914.219ZM914.219 343.414V345.469H911.961V343.414H914.219ZM916.43 343.484H918.656V355H916.43V343.484ZM928.125 352.5C928.068 353.005 927.805 353.518 927.336 354.039C926.607 354.867 925.586 355.281 924.273 355.281C923.19 355.281 922.234 354.932 921.406 354.234C920.578 353.536 920.164 352.401 920.164 350.828C920.164 349.354 920.536 348.224 921.281 347.438C922.031 346.651 923.003 346.258 924.195 346.258C924.904 346.258 925.542 346.391 926.109 346.656C926.677 346.922 927.146 347.341 927.516 347.914C927.849 348.419 928.065 349.005 928.164 349.672C928.221 350.062 928.245 350.625 928.234 351.359H922.406C922.438 352.214 922.706 352.812 923.211 353.156C923.518 353.37 923.888 353.477 924.32 353.477C924.779 353.477 925.151 353.346 925.438 353.086C925.594 352.945 925.732 352.75 925.852 352.5H928.125ZM925.922 349.891C925.885 349.302 925.706 348.857 925.383 348.555C925.065 348.247 924.669 348.094 924.195 348.094C923.68 348.094 923.279 348.255 922.992 348.578C922.711 348.901 922.534 349.339 922.461 349.891H925.922ZM934.375 343.484H936.781V352.93H942.484V355H934.375V343.484ZM946.266 346.484V355H944.008V346.484H946.266ZM946.266 343.414V345.469H944.008V343.414H946.266ZM952.438 348.133C951.682 348.133 951.164 348.453 950.883 349.094C950.737 349.432 950.664 349.865 950.664 350.391V355H948.445V346.5H950.594V347.742C950.88 347.305 951.151 346.99 951.406 346.797C951.865 346.453 952.445 346.281 953.148 346.281C954.029 346.281 954.747 346.513 955.305 346.977C955.867 347.435 956.148 348.198 956.148 349.266V355H953.867V349.82C953.867 349.372 953.807 349.029 953.688 348.789C953.469 348.352 953.052 348.133 952.438 348.133ZM966.023 355H963.336L961.297 351.359L960.375 352.32V355H958.188V343.523H960.375V349.727L963.148 346.523H965.906L962.93 349.781L966.023 355Z" fill="#00598C"/>
<path d="M1126 370H806V372H1126V370Z" fill="#CCCCCC" mask="url(#path-20-inside-6_151_839)"/>
<mask id="path-23-inside-7_151_839" fill="white">
<path d="M806 371H1126V415H806V371Z"/>
</mask>
<path d="M806 371H1126V415H806V371Z" fill="#D9D9D9"/>
<path d="M905.422 399H903.18V387.484H906.68L908.773 396.539L910.852 387.484H914.312V399H912.07V391.211C912.07 390.987 912.073 390.674 912.078 390.273C912.083 389.867 912.086 389.555 912.086 389.336L909.906 399H907.57L905.406 389.336C905.406 389.555 905.409 389.867 905.414 390.273C905.419 390.674 905.422 390.987 905.422 391.211V399ZM923.469 391.562C924.188 392.464 924.547 393.529 924.547 394.758C924.547 396.008 924.188 397.078 923.469 397.969C922.75 398.854 921.659 399.297 920.195 399.297C918.732 399.297 917.641 398.854 916.922 397.969C916.203 397.078 915.844 396.008 915.844 394.758C915.844 393.529 916.203 392.464 916.922 391.562C917.641 390.661 918.732 390.211 920.195 390.211C921.659 390.211 922.75 390.661 923.469 391.562ZM920.188 392.094C919.536 392.094 919.034 392.326 918.68 392.789C918.331 393.247 918.156 393.904 918.156 394.758C918.156 395.612 918.331 396.271 918.68 396.734C919.034 397.198 919.536 397.43 920.188 397.43C920.839 397.43 921.339 397.198 921.688 396.734C922.036 396.271 922.211 395.612 922.211 394.758C922.211 393.904 922.036 393.247 921.688 392.789C921.339 392.326 920.839 392.094 920.188 392.094ZM930.773 399.227C930.07 399.227 929.505 399.086 929.078 398.805C928.823 398.638 928.547 398.346 928.25 397.93V399H926.07V387.5H928.289V391.594C928.57 391.198 928.88 390.896 929.219 390.688C929.62 390.427 930.13 390.297 930.75 390.297C931.87 390.297 932.745 390.701 933.375 391.508C934.01 392.315 934.328 393.357 934.328 394.633C934.328 395.956 934.016 397.052 933.391 397.922C932.766 398.792 931.893 399.227 930.773 399.227ZM931.992 394.867C931.992 394.263 931.914 393.763 931.758 393.367C931.461 392.617 930.914 392.242 930.117 392.242C929.31 392.242 928.755 392.609 928.453 393.344C928.297 393.734 928.219 394.24 928.219 394.859C928.219 395.589 928.38 396.193 928.703 396.672C929.026 397.151 929.518 397.391 930.18 397.391C930.753 397.391 931.198 397.159 931.516 396.695C931.833 396.232 931.992 395.622 931.992 394.867ZM938.219 390.484V399H935.961V390.484H938.219ZM938.219 387.414V389.469H935.961V387.414H938.219ZM940.43 387.484H942.656V399H940.43V387.484ZM952.125 396.5C952.068 397.005 951.805 397.518 951.336 398.039C950.607 398.867 949.586 399.281 948.273 399.281C947.19 399.281 946.234 398.932 945.406 398.234C944.578 397.536 944.164 396.401 944.164 394.828C944.164 393.354 944.536 392.224 945.281 391.438C946.031 390.651 947.003 390.258 948.195 390.258C948.904 390.258 949.542 390.391 950.109 390.656C950.677 390.922 951.146 391.341 951.516 391.914C951.849 392.419 952.065 393.005 952.164 393.672C952.221 394.062 952.245 394.625 952.234 395.359H946.406C946.438 396.214 946.706 396.812 947.211 397.156C947.518 397.37 947.888 397.477 948.32 397.477C948.779 397.477 949.151 397.346 949.438 397.086C949.594 396.945 949.732 396.75 949.852 396.5H952.125ZM949.922 393.891C949.885 393.302 949.706 392.857 949.383 392.555C949.065 392.247 948.669 392.094 948.195 392.094C947.68 392.094 947.279 392.255 946.992 392.578C946.711 392.901 946.534 393.339 946.461 393.891H949.922ZM958.375 387.484H960.781V396.93H966.484V399H958.375V387.484ZM970.266 390.484V399H968.008V390.484H970.266ZM970.266 387.414V389.469H968.008V387.414H970.266ZM976.438 392.133C975.682 392.133 975.164 392.453 974.883 393.094C974.737 393.432 974.664 393.865 974.664 394.391V399H972.445V390.5H974.594V391.742C974.88 391.305 975.151 390.99 975.406 390.797C975.865 390.453 976.445 390.281 977.148 390.281C978.029 390.281 978.747 390.513 979.305 390.977C979.867 391.435 980.148 392.198 980.148 393.266V399H977.867V393.82C977.867 393.372 977.807 393.029 977.688 392.789C977.469 392.352 977.052 392.133 976.438 392.133ZM990.023 399H987.336L985.297 395.359L984.375 396.32V399H982.188V387.523H984.375V393.727L987.148 390.523H989.906L986.93 393.781L990.023 399Z" fill="#00598C"/>
<path d="M1126 414H806V416H1126V414Z" fill="#CCCCCC" mask="url(#path-23-inside-7_151_839)"/>
<mask id="path-26-inside-8_151_839" fill="white">
<path d="M806 415H1126V459H806V415Z"/>
</mask>
<path d="M806 415H1126V459H806V415Z" fill="white"/>
<path d="M833.422 443H831.18V431.484H834.68L836.773 440.539L838.852 431.484H842.312V443H840.07V435.211C840.07 434.987 840.073 434.674 840.078 434.273C840.083 433.867 840.086 433.555 840.086 433.336L837.906 443H835.57L833.406 433.336C833.406 433.555 833.409 433.867 833.414 434.273C833.419 434.674 833.422 434.987 833.422 435.211V443ZM851.469 435.562C852.188 436.464 852.547 437.529 852.547 438.758C852.547 440.008 852.188 441.078 851.469 441.969C850.75 442.854 849.659 443.297 848.195 443.297C846.732 443.297 845.641 442.854 844.922 441.969C844.203 441.078 843.844 440.008 843.844 438.758C843.844 437.529 844.203 436.464 844.922 435.562C845.641 434.661 846.732 434.211 848.195 434.211C849.659 434.211 850.75 434.661 851.469 435.562ZM848.188 436.094C847.536 436.094 847.034 436.326 846.68 436.789C846.331 437.247 846.156 437.904 846.156 438.758C846.156 439.612 846.331 440.271 846.68 440.734C847.034 441.198 847.536 441.43 848.188 441.43C848.839 441.43 849.339 441.198 849.688 440.734C850.036 440.271 850.211 439.612 850.211 438.758C850.211 437.904 850.036 437.247 849.688 436.789C849.339 436.326 848.839 436.094 848.188 436.094ZM858.773 443.227C858.07 443.227 857.505 443.086 857.078 442.805C856.823 442.638 856.547 442.346 856.25 441.93V443H854.07V431.5H856.289V435.594C856.57 435.198 856.88 434.896 857.219 434.688C857.62 434.427 858.13 434.297 858.75 434.297C859.87 434.297 860.745 434.701 861.375 435.508C862.01 436.315 862.328 437.357 862.328 438.633C862.328 439.956 862.016 441.052 861.391 441.922C860.766 442.792 859.893 443.227 858.773 443.227ZM859.992 438.867C859.992 438.263 859.914 437.763 859.758 437.367C859.461 436.617 858.914 436.242 858.117 436.242C857.31 436.242 856.755 436.609 856.453 437.344C856.297 437.734 856.219 438.24 856.219 438.859C856.219 439.589 856.38 440.193 856.703 440.672C857.026 441.151 857.518 441.391 858.18 441.391C858.753 441.391 859.198 441.159 859.516 440.695C859.833 440.232 859.992 439.622 859.992 438.867ZM866.219 434.484V443H863.961V434.484H866.219ZM866.219 431.414V433.469H863.961V431.414H866.219ZM868.43 431.484H870.656V443H868.43V431.484ZM880.125 440.5C880.068 441.005 879.805 441.518 879.336 442.039C878.607 442.867 877.586 443.281 876.273 443.281C875.19 443.281 874.234 442.932 873.406 442.234C872.578 441.536 872.164 440.401 872.164 438.828C872.164 437.354 872.536 436.224 873.281 435.438C874.031 434.651 875.003 434.258 876.195 434.258C876.904 434.258 877.542 434.391 878.109 434.656C878.677 434.922 879.146 435.341 879.516 435.914C879.849 436.419 880.065 437.005 880.164 437.672C880.221 438.062 880.245 438.625 880.234 439.359H874.406C874.438 440.214 874.706 440.812 875.211 441.156C875.518 441.37 875.888 441.477 876.32 441.477C876.779 441.477 877.151 441.346 877.438 441.086C877.594 440.945 877.732 440.75 877.852 440.5H880.125ZM877.922 437.891C877.885 437.302 877.706 436.857 877.383 436.555C877.065 436.247 876.669 436.094 876.195 436.094C875.68 436.094 875.279 436.255 874.992 436.578C874.711 436.901 874.534 437.339 874.461 437.891H877.922ZM886.375 431.484H888.781V440.93H894.484V443H886.375V431.484ZM898.266 434.484V443H896.008V434.484H898.266ZM898.266 431.414V433.469H896.008V431.414H898.266ZM904.438 436.133C903.682 436.133 903.164 436.453 902.883 437.094C902.737 437.432 902.664 437.865 902.664 438.391V443H900.445V434.5H902.594V435.742C902.88 435.305 903.151 434.99 903.406 434.797C903.865 434.453 904.445 434.281 905.148 434.281C906.029 434.281 906.747 434.513 907.305 434.977C907.867 435.435 908.148 436.198 908.148 437.266V443H905.867V437.82C905.867 437.372 905.807 437.029 905.688 436.789C905.469 436.352 905.052 436.133 904.438 436.133ZM918.023 443H915.336L913.297 439.359L912.375 440.32V443H910.188V431.523H912.375V437.727L915.148 434.523H917.906L914.93 437.781L918.023 443Z" fill="#00598C"/>
<path d="M1126 458H806V460H1126V458Z" fill="#CCCCCC" mask="url(#path-26-inside-8_151_839)"/>
<mask id="path-29-inside-9_151_839" fill="white">
<path d="M806 459H1126V503H806V459Z"/>
</mask>
<path d="M806 459H1126V503H806V459Z" fill="white"/>
<path d="M833.422 487H831.18V475.484H834.68L836.773 484.539L838.852 475.484H842.312V487H840.07V479.211C840.07 478.987 840.073 478.674 840.078 478.273C840.083 477.867 840.086 477.555 840.086 477.336L837.906 487H835.57L833.406 477.336C833.406 477.555 833.409 477.867 833.414 478.273C833.419 478.674 833.422 478.987 833.422 479.211V487ZM851.469 479.562C852.188 480.464 852.547 481.529 852.547 482.758C852.547 484.008 852.188 485.078 851.469 485.969C850.75 486.854 849.659 487.297 848.195 487.297C846.732 487.297 845.641 486.854 844.922 485.969C844.203 485.078 843.844 484.008 843.844 482.758C843.844 481.529 844.203 480.464 844.922 479.562C845.641 478.661 846.732 478.211 848.195 478.211C849.659 478.211 850.75 478.661 851.469 479.562ZM848.188 480.094C847.536 480.094 847.034 480.326 846.68 480.789C846.331 481.247 846.156 481.904 846.156 482.758C846.156 483.612 846.331 484.271 846.68 484.734C847.034 485.198 847.536 485.43 848.188 485.43C848.839 485.43 849.339 485.198 849.688 484.734C850.036 484.271 850.211 483.612 850.211 482.758C850.211 481.904 850.036 481.247 849.688 480.789C849.339 480.326 848.839 480.094 848.188 480.094ZM858.773 487.227C858.07 487.227 857.505 487.086 857.078 486.805C856.823 486.638 856.547 486.346 856.25 485.93V487H854.07V475.5H856.289V479.594C856.57 479.198 856.88 478.896 857.219 478.688C857.62 478.427 858.13 478.297 858.75 478.297C859.87 478.297 860.745 478.701 861.375 479.508C862.01 480.315 862.328 481.357 862.328 482.633C862.328 483.956 862.016 485.052 861.391 485.922C860.766 486.792 859.893 487.227 858.773 487.227ZM859.992 482.867C859.992 482.263 859.914 481.763 859.758 481.367C859.461 480.617 858.914 480.242 858.117 480.242C857.31 480.242 856.755 480.609 856.453 481.344C856.297 481.734 856.219 482.24 856.219 482.859C856.219 483.589 856.38 484.193 856.703 484.672C857.026 485.151 857.518 485.391 858.18 485.391C858.753 485.391 859.198 485.159 859.516 484.695C859.833 484.232 859.992 483.622 859.992 482.867ZM866.219 478.484V487H863.961V478.484H866.219ZM866.219 475.414V477.469H863.961V475.414H866.219ZM868.43 475.484H870.656V487H868.43V475.484ZM880.125 484.5C880.068 485.005 879.805 485.518 879.336 486.039C878.607 486.867 877.586 487.281 876.273 487.281C875.19 487.281 874.234 486.932 873.406 486.234C872.578 485.536 872.164 484.401 872.164 482.828C872.164 481.354 872.536 480.224 873.281 479.438C874.031 478.651 875.003 478.258 876.195 478.258C876.904 478.258 877.542 478.391 878.109 478.656C878.677 478.922 879.146 479.341 879.516 479.914C879.849 480.419 880.065 481.005 880.164 481.672C880.221 482.062 880.245 482.625 880.234 483.359H874.406C874.438 484.214 874.706 484.812 875.211 485.156C875.518 485.37 875.888 485.477 876.32 485.477C876.779 485.477 877.151 485.346 877.438 485.086C877.594 484.945 877.732 484.75 877.852 484.5H880.125ZM877.922 481.891C877.885 481.302 877.706 480.857 877.383 480.555C877.065 480.247 876.669 480.094 876.195 480.094C875.68 480.094 875.279 480.255 874.992 480.578C874.711 480.901 874.534 481.339 874.461 481.891H877.922ZM886.375 475.484H888.781V484.93H894.484V487H886.375V475.484ZM898.266 478.484V487H896.008V478.484H898.266ZM898.266 475.414V477.469H896.008V475.414H898.266ZM904.438 480.133C903.682 480.133 903.164 480.453 902.883 481.094C902.737 481.432 902.664 481.865 902.664 482.391V487H900.445V478.5H902.594V479.742C902.88 479.305 903.151 478.99 903.406 478.797C903.865 478.453 904.445 478.281 905.148 478.281C906.029 478.281 906.747 478.513 907.305 478.977C907.867 479.435 908.148 480.198 908.148 481.266V487H905.867V481.82C905.867 481.372 905.807 481.029 905.688 480.789C905.469 480.352 905.052 480.133 904.438 480.133ZM918.023 487H915.336L913.297 483.359L912.375 484.32V487H910.188V475.523H912.375V481.727L915.148 478.523H917.906L914.93 481.781L918.023 487Z" fill="#00598C"/>
<path d="M1126 502H806V504H1126V502Z" fill="#CCCCCC" mask="url(#path-29-inside-9_151_839)"/>
<mask id="path-32-inside-10_151_839" fill="white">
<path d="M806 503H1126V547H806V503Z"/>
</mask>
<path d="M806 503H1126V547H806V503Z" fill="white"/>
<path d="M834.724 528.544C835.22 528.544 835.624 528.489 835.934 528.38C836.521 528.17 836.815 527.781 836.815 527.211C836.815 526.878 836.67 526.621 836.378 526.438C836.086 526.261 835.628 526.104 835.004 525.967L833.938 525.728C832.889 525.491 832.165 525.233 831.764 524.955C831.085 524.49 830.745 523.763 830.745 522.774C830.745 521.872 831.073 521.122 831.729 520.525C832.386 519.928 833.35 519.63 834.621 519.63C835.683 519.63 836.588 519.912 837.335 520.478C838.087 521.038 838.481 521.854 838.518 522.925H836.494C836.458 522.319 836.193 521.888 835.701 521.633C835.373 521.464 834.965 521.38 834.478 521.38C833.935 521.38 833.502 521.489 833.179 521.708C832.855 521.927 832.693 522.232 832.693 522.624C832.693 522.984 832.853 523.253 833.172 523.431C833.377 523.549 833.814 523.688 834.484 523.848L836.221 524.265C836.982 524.447 837.556 524.691 837.943 524.996C838.545 525.47 838.846 526.156 838.846 527.054C838.846 527.974 838.493 528.74 837.786 529.351C837.084 529.957 836.091 530.26 834.806 530.26C833.493 530.26 832.461 529.961 831.709 529.364C830.957 528.763 830.581 527.938 830.581 526.89H832.591C832.655 527.35 832.78 527.694 832.967 527.922C833.309 528.337 833.894 528.544 834.724 528.544ZM846.625 527.812C846.575 528.255 846.345 528.703 845.935 529.159C845.297 529.884 844.403 530.246 843.255 530.246C842.307 530.246 841.471 529.941 840.746 529.33C840.021 528.719 839.659 527.726 839.659 526.35C839.659 525.06 839.985 524.071 840.637 523.383C841.293 522.695 842.143 522.351 843.187 522.351C843.806 522.351 844.365 522.467 844.861 522.699C845.358 522.932 845.768 523.299 846.092 523.8C846.383 524.242 846.573 524.755 846.659 525.338C846.709 525.68 846.73 526.172 846.721 526.814H841.621C841.648 527.562 841.883 528.086 842.325 528.387C842.594 528.574 842.918 528.667 843.296 528.667C843.697 528.667 844.023 528.553 844.273 528.325C844.41 528.202 844.531 528.031 844.636 527.812H846.625ZM844.697 525.529C844.665 525.014 844.508 524.625 844.226 524.36C843.948 524.091 843.601 523.957 843.187 523.957C842.735 523.957 842.384 524.098 842.134 524.381C841.888 524.663 841.733 525.046 841.669 525.529H844.697ZM854.486 525.222H852.49C852.454 524.944 852.36 524.693 852.21 524.47C851.991 524.169 851.652 524.019 851.191 524.019C850.535 524.019 850.086 524.344 849.845 524.996C849.717 525.342 849.653 525.803 849.653 526.377C849.653 526.924 849.717 527.364 849.845 527.696C850.077 528.316 850.515 528.626 851.157 528.626C851.613 528.626 851.937 528.503 852.128 528.257C852.319 528.011 852.436 527.692 852.477 527.3H854.466C854.42 527.892 854.206 528.453 853.823 528.981C853.213 529.834 852.308 530.26 851.109 530.26C849.911 530.26 849.029 529.904 848.464 529.193C847.899 528.482 847.616 527.56 847.616 526.425C847.616 525.144 847.928 524.148 848.553 523.438C849.177 522.727 850.038 522.371 851.137 522.371C852.071 522.371 852.834 522.581 853.427 523C854.024 523.419 854.377 524.16 854.486 525.222ZM862.047 523.492C862.676 524.281 862.99 525.213 862.99 526.288C862.99 527.382 862.676 528.318 862.047 529.098C861.418 529.872 860.463 530.26 859.183 530.26C857.902 530.26 856.947 529.872 856.318 529.098C855.689 528.318 855.375 527.382 855.375 526.288C855.375 525.213 855.689 524.281 856.318 523.492C856.947 522.704 857.902 522.31 859.183 522.31C860.463 522.31 861.418 522.704 862.047 523.492ZM859.176 523.957C858.606 523.957 858.166 524.16 857.856 524.565C857.551 524.966 857.398 525.541 857.398 526.288C857.398 527.035 857.551 527.612 857.856 528.018C858.166 528.423 858.606 528.626 859.176 528.626C859.745 528.626 860.183 528.423 860.488 528.018C860.794 527.612 860.946 527.035 860.946 526.288C860.946 525.541 860.794 524.966 860.488 524.565C860.183 524.16 859.745 523.957 859.176 523.957ZM867.898 523.991C867.238 523.991 866.784 524.271 866.538 524.832C866.41 525.128 866.347 525.507 866.347 525.967V530H864.405V522.562H866.285V523.649C866.536 523.267 866.773 522.991 866.996 522.822C867.397 522.521 867.905 522.371 868.521 522.371C869.291 522.371 869.92 522.574 870.407 522.979C870.899 523.381 871.146 524.048 871.146 524.982V530H869.149V525.468C869.149 525.076 869.097 524.775 868.992 524.565C868.801 524.183 868.436 523.991 867.898 523.991ZM879.731 519.938V530H877.838V528.968C877.56 529.41 877.243 529.731 876.888 529.932C876.532 530.132 876.09 530.232 875.562 530.232C874.691 530.232 873.957 529.882 873.36 529.18C872.768 528.473 872.472 527.569 872.472 526.466C872.472 525.194 872.763 524.194 873.347 523.465C873.935 522.736 874.718 522.371 875.698 522.371C876.149 522.371 876.55 522.471 876.901 522.672C877.252 522.868 877.537 523.141 877.756 523.492V519.938H879.731ZM874.481 526.322C874.481 527.01 874.618 527.56 874.892 527.97C875.16 528.384 875.571 528.592 876.122 528.592C876.674 528.592 877.093 528.387 877.38 527.977C877.667 527.566 877.811 527.035 877.811 526.384C877.811 525.472 877.58 524.821 877.12 524.429C876.838 524.192 876.509 524.073 876.136 524.073C875.566 524.073 875.147 524.29 874.878 524.723C874.614 525.151 874.481 525.684 874.481 526.322ZM881.789 523.355C882.304 522.699 883.188 522.371 884.441 522.371C885.257 522.371 885.982 522.533 886.615 522.856C887.249 523.18 887.565 523.791 887.565 524.688V528.106C887.565 528.343 887.57 528.631 887.579 528.968C887.593 529.223 887.632 529.396 887.695 529.487C887.759 529.578 887.855 529.654 887.982 529.713V530H885.863C885.804 529.85 885.763 529.708 885.74 529.576C885.717 529.444 885.699 529.294 885.686 529.125C885.417 529.417 885.107 529.665 884.756 529.87C884.337 530.112 883.863 530.232 883.334 530.232C882.66 530.232 882.101 530.041 881.659 529.658C881.222 529.271 881.003 528.724 881.003 528.018C881.003 527.102 881.356 526.438 882.062 526.028C882.45 525.805 883.02 525.646 883.771 525.55L884.435 525.468C884.795 525.422 885.052 525.365 885.207 525.297C885.485 525.178 885.624 524.994 885.624 524.743C885.624 524.438 885.517 524.228 885.303 524.114C885.093 523.996 884.783 523.937 884.373 523.937C883.913 523.937 883.587 524.05 883.396 524.278C883.259 524.447 883.168 524.675 883.122 524.962H881.242C881.283 524.31 881.465 523.775 881.789 523.355ZM883.238 528.592C883.421 528.742 883.644 528.817 883.908 528.817C884.327 528.817 884.713 528.694 885.063 528.448C885.419 528.202 885.604 527.753 885.617 527.102V526.377C885.494 526.454 885.369 526.518 885.241 526.568C885.118 526.614 884.947 526.657 884.729 526.698L884.291 526.78C883.881 526.853 883.587 526.942 883.409 527.047C883.108 527.225 882.958 527.5 882.958 527.874C882.958 528.207 883.051 528.446 883.238 528.592ZM893.048 524.347C892.264 524.347 891.738 524.602 891.469 525.112C891.318 525.399 891.243 525.841 891.243 526.438V530H889.281V522.549H891.141V523.848C891.441 523.351 891.703 523.011 891.927 522.829C892.291 522.524 892.765 522.371 893.349 522.371C893.385 522.371 893.415 522.373 893.438 522.378C893.465 522.378 893.522 522.38 893.608 522.385V524.381C893.485 524.367 893.376 524.358 893.28 524.354C893.185 524.349 893.107 524.347 893.048 524.347ZM897.785 528.045L899.323 522.549H901.395L898.838 529.877C898.346 531.29 897.956 532.165 897.669 532.502C897.382 532.844 896.808 533.015 895.946 533.015C895.773 533.015 895.634 533.012 895.529 533.008C895.424 533.008 895.267 533.001 895.058 532.987V531.429L895.304 531.442C895.495 531.451 895.677 531.445 895.851 531.422C896.024 531.399 896.17 531.347 896.288 531.265C896.402 531.187 896.507 531.025 896.603 530.779C896.703 530.533 896.744 530.383 896.726 530.328L893.991 522.549H896.158L897.785 528.045ZM908.531 530H906.569V519.924H909.632L911.464 527.847L913.282 519.924H916.311V530H914.349V523.185C914.349 522.989 914.351 522.715 914.355 522.364C914.36 522.009 914.362 521.735 914.362 521.544L912.455 530H910.411L908.518 521.544C908.518 521.735 908.52 522.009 908.524 522.364C908.529 522.715 908.531 522.989 908.531 523.185V530ZM924.322 523.492C924.951 524.281 925.266 525.213 925.266 526.288C925.266 527.382 924.951 528.318 924.322 529.098C923.693 529.872 922.739 530.26 921.458 530.26C920.177 530.26 919.223 529.872 918.594 529.098C917.965 528.318 917.65 527.382 917.65 526.288C917.65 525.213 917.965 524.281 918.594 523.492C919.223 522.704 920.177 522.31 921.458 522.31C922.739 522.31 923.693 522.704 924.322 523.492ZM921.451 523.957C920.882 523.957 920.442 524.16 920.132 524.565C919.826 524.966 919.674 525.541 919.674 526.288C919.674 527.035 919.826 527.612 920.132 528.018C920.442 528.423 920.882 528.626 921.451 528.626C922.021 528.626 922.458 528.423 922.764 528.018C923.069 527.612 923.222 527.035 923.222 526.288C923.222 525.541 923.069 524.966 922.764 524.565C922.458 524.16 922.021 523.957 921.451 523.957ZM930.714 530.198C930.099 530.198 929.604 530.075 929.23 529.829C929.007 529.683 928.766 529.428 928.506 529.063V530H926.599V519.938H928.54V523.52C928.786 523.173 929.057 522.909 929.354 522.727C929.704 522.499 930.151 522.385 930.693 522.385C931.673 522.385 932.439 522.738 932.99 523.444C933.546 524.151 933.824 525.062 933.824 526.179C933.824 527.336 933.551 528.296 933.004 529.057C932.457 529.818 931.694 530.198 930.714 530.198ZM931.78 526.384C931.78 525.855 931.712 525.418 931.575 525.071C931.315 524.415 930.837 524.087 930.14 524.087C929.433 524.087 928.948 524.408 928.684 525.051C928.547 525.393 928.479 525.835 928.479 526.377C928.479 527.015 928.62 527.544 928.902 527.963C929.185 528.382 929.616 528.592 930.194 528.592C930.696 528.592 931.085 528.389 931.363 527.983C931.641 527.578 931.78 527.045 931.78 526.384ZM937.229 522.549V530H935.253V522.549H937.229ZM937.229 519.862V521.66H935.253V519.862H937.229ZM939.163 519.924H941.111V530H939.163V519.924ZM949.396 527.812C949.346 528.255 949.116 528.703 948.706 529.159C948.068 529.884 947.175 530.246 946.026 530.246C945.078 530.246 944.242 529.941 943.518 529.33C942.793 528.719 942.431 527.726 942.431 526.35C942.431 525.06 942.757 524.071 943.408 523.383C944.064 522.695 944.914 522.351 945.958 522.351C946.578 522.351 947.136 522.467 947.633 522.699C948.13 522.932 948.54 523.299 948.863 523.8C949.155 524.242 949.344 524.755 949.431 525.338C949.481 525.68 949.501 526.172 949.492 526.814H944.393C944.42 527.562 944.655 528.086 945.097 528.387C945.366 528.574 945.689 528.667 946.067 528.667C946.468 528.667 946.794 528.553 947.045 528.325C947.182 528.202 947.302 528.031 947.407 527.812H949.396ZM947.469 525.529C947.437 525.014 947.28 524.625 946.997 524.36C946.719 524.091 946.373 523.957 945.958 523.957C945.507 523.957 945.156 524.098 944.905 524.381C944.659 524.663 944.504 525.046 944.44 525.529H947.469ZM954.865 519.924H956.971V528.188H961.961V530H954.865V519.924ZM965.27 522.549V530H963.294V522.549H965.27ZM965.27 519.862V521.66H963.294V519.862H965.27ZM970.67 523.991C970.009 523.991 969.556 524.271 969.31 524.832C969.182 525.128 969.118 525.507 969.118 525.967V530H967.177V522.562H969.057V523.649C969.307 523.267 969.544 522.991 969.768 522.822C970.169 522.521 970.677 522.371 971.292 522.371C972.062 522.371 972.691 522.574 973.179 522.979C973.671 523.381 973.917 524.048 973.917 524.982V530H971.921V525.468C971.921 525.076 971.868 524.775 971.764 524.565C971.572 524.183 971.208 523.991 970.67 523.991ZM982.558 530H980.206L978.422 526.814L977.615 527.655V530H975.701V519.958H977.615V525.386L980.042 522.583H982.455L979.851 525.434L982.558 530Z" fill="#00598C"/>
<path d="M1126 546H806V548H1126V546Z" fill="#CCCCCC" mask="url(#path-32-inside-10_151_839)"/>
<rect width="320" height="44" transform="translate(806 547)" fill="#00598C"/>
<path d="M834.724 572.544C835.22 572.544 835.624 572.489 835.934 572.38C836.521 572.17 836.815 571.781 836.815 571.211C836.815 570.878 836.67 570.621 836.378 570.438C836.086 570.261 835.628 570.104 835.004 569.967L833.938 569.728C832.889 569.491 832.165 569.233 831.764 568.955C831.085 568.49 830.745 567.763 830.745 566.774C830.745 565.872 831.073 565.122 831.729 564.525C832.386 563.928 833.35 563.63 834.621 563.63C835.683 563.63 836.588 563.912 837.335 564.478C838.087 565.038 838.481 565.854 838.518 566.925H836.494C836.458 566.319 836.193 565.888 835.701 565.633C835.373 565.464 834.965 565.38 834.478 565.38C833.935 565.38 833.502 565.489 833.179 565.708C832.855 565.927 832.693 566.232 832.693 566.624C832.693 566.984 832.853 567.253 833.172 567.431C833.377 567.549 833.814 567.688 834.484 567.848L836.221 568.265C836.982 568.447 837.556 568.691 837.943 568.996C838.545 569.47 838.846 570.156 838.846 571.054C838.846 571.974 838.493 572.74 837.786 573.351C837.084 573.957 836.091 574.26 834.806 574.26C833.493 574.26 832.461 573.961 831.709 573.364C830.957 572.763 830.581 571.938 830.581 570.89H832.591C832.655 571.35 832.78 571.694 832.967 571.922C833.309 572.337 833.894 572.544 834.724 572.544ZM846.625 571.812C846.575 572.255 846.345 572.703 845.935 573.159C845.297 573.884 844.403 574.246 843.255 574.246C842.307 574.246 841.471 573.941 840.746 573.33C840.021 572.719 839.659 571.726 839.659 570.35C839.659 569.06 839.985 568.071 840.637 567.383C841.293 566.695 842.143 566.351 843.187 566.351C843.806 566.351 844.365 566.467 844.861 566.699C845.358 566.932 845.768 567.299 846.092 567.8C846.383 568.242 846.573 568.755 846.659 569.338C846.709 569.68 846.73 570.172 846.721 570.814H841.621C841.648 571.562 841.883 572.086 842.325 572.387C842.594 572.574 842.918 572.667 843.296 572.667C843.697 572.667 844.023 572.553 844.273 572.325C844.41 572.202 844.531 572.031 844.636 571.812H846.625ZM844.697 569.529C844.665 569.014 844.508 568.625 844.226 568.36C843.948 568.091 843.601 567.957 843.187 567.957C842.735 567.957 842.384 568.098 842.134 568.381C841.888 568.663 841.733 569.046 841.669 569.529H844.697ZM854.486 569.222H852.49C852.454 568.944 852.36 568.693 852.21 568.47C851.991 568.169 851.652 568.019 851.191 568.019C850.535 568.019 850.086 568.344 849.845 568.996C849.717 569.342 849.653 569.803 849.653 570.377C849.653 570.924 849.717 571.364 849.845 571.696C850.077 572.316 850.515 572.626 851.157 572.626C851.613 572.626 851.937 572.503 852.128 572.257C852.319 572.011 852.436 571.692 852.477 571.3H854.466C854.42 571.892 854.206 572.453 853.823 572.981C853.213 573.834 852.308 574.26 851.109 574.26C849.911 574.26 849.029 573.904 848.464 573.193C847.899 572.482 847.616 571.56 847.616 570.425C847.616 569.144 847.928 568.148 848.553 567.438C849.177 566.727 850.038 566.371 851.137 566.371C852.071 566.371 852.834 566.581 853.427 567C854.024 567.419 854.377 568.16 854.486 569.222ZM862.047 567.492C862.676 568.281 862.99 569.213 862.99 570.288C862.99 571.382 862.676 572.318 862.047 573.098C861.418 573.872 860.463 574.26 859.183 574.26C857.902 574.26 856.947 573.872 856.318 573.098C855.689 572.318 855.375 571.382 855.375 570.288C855.375 569.213 855.689 568.281 856.318 567.492C856.947 566.704 857.902 566.31 859.183 566.31C860.463 566.31 861.418 566.704 862.047 567.492ZM859.176 567.957C858.606 567.957 858.166 568.16 857.856 568.565C857.551 568.966 857.398 569.541 857.398 570.288C857.398 571.035 857.551 571.612 857.856 572.018C858.166 572.423 858.606 572.626 859.176 572.626C859.745 572.626 860.183 572.423 860.488 572.018C860.794 571.612 860.946 571.035 860.946 570.288C860.946 569.541 860.794 568.966 860.488 568.565C860.183 568.16 859.745 567.957 859.176 567.957ZM867.898 567.991C867.238 567.991 866.784 568.271 866.538 568.832C866.41 569.128 866.347 569.507 866.347 569.967V574H864.405V566.562H866.285V567.649C866.536 567.267 866.773 566.991 866.996 566.822C867.397 566.521 867.905 566.371 868.521 566.371C869.291 566.371 869.92 566.574 870.407 566.979C870.899 567.381 871.146 568.048 871.146 568.982V574H869.149V569.468C869.149 569.076 869.097 568.775 868.992 568.565C868.801 568.183 868.436 567.991 867.898 567.991ZM879.731 563.938V574H877.838V572.968C877.56 573.41 877.243 573.731 876.888 573.932C876.532 574.132 876.09 574.232 875.562 574.232C874.691 574.232 873.957 573.882 873.36 573.18C872.768 572.473 872.472 571.569 872.472 570.466C872.472 569.194 872.763 568.194 873.347 567.465C873.935 566.736 874.718 566.371 875.698 566.371C876.149 566.371 876.55 566.471 876.901 566.672C877.252 566.868 877.537 567.141 877.756 567.492V563.938H879.731ZM874.481 570.322C874.481 571.01 874.618 571.56 874.892 571.97C875.16 572.384 875.571 572.592 876.122 572.592C876.674 572.592 877.093 572.387 877.38 571.977C877.667 571.566 877.811 571.035 877.811 570.384C877.811 569.472 877.58 568.821 877.12 568.429C876.838 568.192 876.509 568.073 876.136 568.073C875.566 568.073 875.147 568.29 874.878 568.723C874.614 569.151 874.481 569.684 874.481 570.322ZM881.789 567.355C882.304 566.699 883.188 566.371 884.441 566.371C885.257 566.371 885.982 566.533 886.615 566.856C887.249 567.18 887.565 567.791 887.565 568.688V572.106C887.565 572.343 887.57 572.631 887.579 572.968C887.593 573.223 887.632 573.396 887.695 573.487C887.759 573.578 887.855 573.654 887.982 573.713V574H885.863C885.804 573.85 885.763 573.708 885.74 573.576C885.717 573.444 885.699 573.294 885.686 573.125C885.417 573.417 885.107 573.665 884.756 573.87C884.337 574.112 883.863 574.232 883.334 574.232C882.66 574.232 882.101 574.041 881.659 573.658C881.222 573.271 881.003 572.724 881.003 572.018C881.003 571.102 881.356 570.438 882.062 570.028C882.45 569.805 883.02 569.646 883.771 569.55L884.435 569.468C884.795 569.422 885.052 569.365 885.207 569.297C885.485 569.178 885.624 568.994 885.624 568.743C885.624 568.438 885.517 568.228 885.303 568.114C885.093 567.996 884.783 567.937 884.373 567.937C883.913 567.937 883.587 568.05 883.396 568.278C883.259 568.447 883.168 568.675 883.122 568.962H881.242C881.283 568.31 881.465 567.775 881.789 567.355ZM883.238 572.592C883.421 572.742 883.644 572.817 883.908 572.817C884.327 572.817 884.713 572.694 885.063 572.448C885.419 572.202 885.604 571.753 885.617 571.102V570.377C885.494 570.454 885.369 570.518 885.241 570.568C885.118 570.614 884.947 570.657 884.729 570.698L884.291 570.78C883.881 570.853 883.587 570.942 883.409 571.047C883.108 571.225 882.958 571.5 882.958 571.874C882.958 572.207 883.051 572.446 883.238 572.592ZM893.048 568.347C892.264 568.347 891.738 568.602 891.469 569.112C891.318 569.399 891.243 569.841 891.243 570.438V574H889.281V566.549H891.141V567.848C891.441 567.351 891.703 567.011 891.927 566.829C892.291 566.524 892.765 566.371 893.349 566.371C893.385 566.371 893.415 566.373 893.438 566.378C893.465 566.378 893.522 566.38 893.608 566.385V568.381C893.485 568.367 893.376 568.358 893.28 568.354C893.185 568.349 893.107 568.347 893.048 568.347ZM897.785 572.045L899.323 566.549H901.395L898.838 573.877C898.346 575.29 897.956 576.165 897.669 576.502C897.382 576.844 896.808 577.015 895.946 577.015C895.773 577.015 895.634 577.012 895.529 577.008C895.424 577.008 895.267 577.001 895.058 576.987V575.429L895.304 575.442C895.495 575.451 895.677 575.445 895.851 575.422C896.024 575.399 896.17 575.347 896.288 575.265C896.402 575.187 896.507 575.025 896.603 574.779C896.703 574.533 896.744 574.383 896.726 574.328L893.991 566.549H896.158L897.785 572.045ZM908.531 574H906.569V563.924H909.632L911.464 571.847L913.282 563.924H916.311V574H914.349V567.185C914.349 566.989 914.351 566.715 914.355 566.364C914.36 566.009 914.362 565.735 914.362 565.544L912.455 574H910.411L908.518 565.544C908.518 565.735 908.52 566.009 908.524 566.364C908.529 566.715 908.531 566.989 908.531 567.185V574ZM924.322 567.492C924.951 568.281 925.266 569.213 925.266 570.288C925.266 571.382 924.951 572.318 924.322 573.098C923.693 573.872 922.739 574.26 921.458 574.26C920.177 574.26 919.223 573.872 918.594 573.098C917.965 572.318 917.65 571.382 917.65 570.288C917.65 569.213 917.965 568.281 918.594 567.492C919.223 566.704 920.177 566.31 921.458 566.31C922.739 566.31 923.693 566.704 924.322 567.492ZM921.451 567.957C920.882 567.957 920.442 568.16 920.132 568.565C919.826 568.966 919.674 569.541 919.674 570.288C919.674 571.035 919.826 571.612 920.132 572.018C920.442 572.423 920.882 572.626 921.451 572.626C922.021 572.626 922.458 572.423 922.764 572.018C923.069 571.612 923.222 571.035 923.222 570.288C923.222 569.541 923.069 568.966 922.764 568.565C922.458 568.16 922.021 567.957 921.451 567.957ZM930.714 574.198C930.099 574.198 929.604 574.075 929.23 573.829C929.007 573.683 928.766 573.428 928.506 573.063V574H926.599V563.938H928.54V567.52C928.786 567.173 929.057 566.909 929.354 566.727C929.704 566.499 930.151 566.385 930.693 566.385C931.673 566.385 932.439 566.738 932.99 567.444C933.546 568.151 933.824 569.062 933.824 570.179C933.824 571.336 933.551 572.296 933.004 573.057C932.457 573.818 931.694 574.198 930.714 574.198ZM931.78 570.384C931.78 569.855 931.712 569.418 931.575 569.071C931.315 568.415 930.837 568.087 930.14 568.087C929.433 568.087 928.948 568.408 928.684 569.051C928.547 569.393 928.479 569.835 928.479 570.377C928.479 571.015 928.62 571.544 928.902 571.963C929.185 572.382 929.616 572.592 930.194 572.592C930.696 572.592 931.085 572.389 931.363 571.983C931.641 571.578 931.78 571.045 931.78 570.384ZM937.229 566.549V574H935.253V566.549H937.229ZM937.229 563.862V565.66H935.253V563.862H937.229ZM939.163 563.924H941.111V574H939.163V563.924ZM949.396 571.812C949.346 572.255 949.116 572.703 948.706 573.159C948.068 573.884 947.175 574.246 946.026 574.246C945.078 574.246 944.242 573.941 943.518 573.33C942.793 572.719 942.431 571.726 942.431 570.35C942.431 569.06 942.757 568.071 943.408 567.383C944.064 566.695 944.914 566.351 945.958 566.351C946.578 566.351 947.136 566.467 947.633 566.699C948.13 566.932 948.54 567.299 948.863 567.8C949.155 568.242 949.344 568.755 949.431 569.338C949.481 569.68 949.501 570.172 949.492 570.814H944.393C944.42 571.562 944.655 572.086 945.097 572.387C945.366 572.574 945.689 572.667 946.067 572.667C946.468 572.667 946.794 572.553 947.045 572.325C947.182 572.202 947.302 572.031 947.407 571.812H949.396ZM947.469 569.529C947.437 569.014 947.28 568.625 946.997 568.36C946.719 568.091 946.373 567.957 945.958 567.957C945.507 567.957 945.156 568.098 944.905 568.381C944.659 568.663 944.504 569.046 944.44 569.529H947.469ZM954.865 563.924H956.971V572.188H961.961V574H954.865V563.924ZM965.27 566.549V574H963.294V566.549H965.27ZM965.27 563.862V565.66H963.294V563.862H965.27ZM970.67 567.991C970.009 567.991 969.556 568.271 969.31 568.832C969.182 569.128 969.118 569.507 969.118 569.967V574H967.177V566.562H969.057V567.649C969.307 567.267 969.544 566.991 969.768 566.822C970.169 566.521 970.677 566.371 971.292 566.371C972.062 566.371 972.691 566.574 973.179 566.979C973.671 567.381 973.917 568.048 973.917 568.982V574H971.921V569.468C971.921 569.076 971.868 568.775 971.764 568.565C971.572 568.183 971.208 567.991 970.67 567.991ZM982.558 574H980.206L978.422 570.814L977.615 571.655V574H975.701V563.958H977.615V569.386L980.042 566.583H982.455L979.851 569.434L982.558 574Z" fill="white"/>
<path d="M1098 307L1099.41 308.41L1104 303.83L1108.59 308.41L1110 307L1104 301L1098 307Z" fill="#00598C"/>
<path d="M1082 327H1081V328H1082V327ZM1126 326H1082V328H1126V326ZM1083 327V283H1081V327H1083Z" fill="#CCCCCC" mask="url(#path-36-inside-11_151_839)"/>
<path d="M1098 351L1099.41 352.41L1104 347.83L1108.59 352.41L1110 351L1104 345L1098 351Z" fill="#00598C"/>
<path d="M1082 371H1081V372H1082V371ZM1126 370H1082V372H1126V370ZM1083 371V327H1081V371H1083Z" fill="#CCCCCC" mask="url(#path-39-inside-12_151_839)"/>
<path d="M1194 273C1192.34 273 1190.78 272.685 1189.32 272.054C1187.86 271.425 1186.59 270.57 1185.51 269.49C1184.43 268.41 1183.58 267.14 1182.95 265.68C1182.32 264.22 1182 262.66 1182 261C1182 259.34 1182.32 257.78 1182.95 256.32C1183.58 254.86 1184.43 253.59 1185.51 252.51C1186.59 251.43 1187.86 250.575 1189.32 249.944C1190.78 249.315 1192.34 249 1194 249C1195.66 249 1197.22 249.315 1198.68 249.944C1200.14 250.575 1201.41 251.43 1202.49 252.51C1203.57 253.59 1204.42 254.86 1205.05 256.32C1205.68 257.78 1206 259.34 1206 261C1206 262.66 1205.68 264.22 1205.05 265.68C1204.42 267.14 1203.57 268.41 1202.49 269.49C1201.41 270.57 1200.14 271.425 1198.68 272.054C1197.22 272.685 1195.66 273 1194 273Z" fill="black"/>
<path d="M1197.44 261.865V263.172H1196.47V265H1194.84V263.172H1191.48V261.713L1194.6 256.557H1196.47V261.865H1197.44ZM1192.71 261.865H1194.84V258.197L1192.71 261.865Z" fill="white"/>
<path d="M1116 261L1182 261" stroke="black"/>
<path d="M1194 317C1192.34 317 1190.78 316.685 1189.32 316.054C1187.86 315.425 1186.59 314.57 1185.51 313.49C1184.43 312.41 1183.58 311.14 1182.95 309.68C1182.32 308.22 1182 306.66 1182 305C1182 303.34 1182.32 301.78 1182.95 300.32C1183.58 298.86 1184.43 297.59 1185.51 296.51C1186.59 295.43 1187.86 294.575 1189.32 293.944C1190.78 293.315 1192.34 293 1194 293C1195.66 293 1197.22 293.315 1198.68 293.944C1200.14 294.575 1201.41 295.43 1202.49 296.51C1203.57 297.59 1204.42 298.86 1205.05 300.32C1205.68 301.78 1206 303.34 1206 305C1206 306.66 1205.68 308.22 1205.05 309.68C1204.42 311.14 1203.57 312.41 1202.49 313.49C1201.41 314.57 1200.14 315.425 1198.68 316.054C1197.22 316.685 1195.66 317 1194 317Z" fill="black"/>
<path d="M1194.83 303.486C1195.58 303.486 1196.2 303.742 1196.68 304.254C1197.16 304.766 1197.41 305.42 1197.41 306.217C1197.41 307.01 1197.17 307.709 1196.7 308.314C1196.22 308.92 1195.49 309.223 1194.49 309.223C1193.42 309.223 1192.63 308.775 1192.13 307.881C1191.73 307.182 1191.54 306.279 1191.54 305.174C1191.54 304.525 1191.56 303.998 1191.62 303.592C1191.71 302.869 1191.9 302.268 1192.19 301.787C1192.43 301.377 1192.74 301.047 1193.13 300.797C1193.53 300.547 1194 300.422 1194.55 300.422C1195.34 300.422 1195.96 300.625 1196.43 301.031C1196.9 301.434 1197.17 301.971 1197.22 302.643H1195.56C1195.56 302.506 1195.51 302.355 1195.4 302.191C1195.22 301.926 1194.95 301.793 1194.59 301.793C1194.04 301.793 1193.66 302.098 1193.43 302.707C1193.3 303.043 1193.22 303.539 1193.17 304.195C1193.38 303.949 1193.62 303.77 1193.89 303.656C1194.16 303.543 1194.48 303.486 1194.83 303.486ZM1193.7 305.08C1193.38 305.334 1193.21 305.744 1193.21 306.311C1193.21 306.768 1193.33 307.141 1193.58 307.43C1193.83 307.719 1194.14 307.863 1194.52 307.863C1194.89 307.863 1195.18 307.725 1195.39 307.447C1195.61 307.166 1195.71 306.803 1195.71 306.357C1195.71 305.861 1195.59 305.482 1195.35 305.221C1195.11 304.955 1194.81 304.822 1194.46 304.822C1194.17 304.822 1193.92 304.908 1193.7 305.08Z" fill="white"/>
<path d="M1116 305L1182 305" stroke="black"/>
<path d="M1194 361C1192.34 361 1190.78 360.685 1189.32 360.054C1187.86 359.425 1186.59 358.57 1185.51 357.49C1184.43 356.41 1183.58 355.14 1182.95 353.68C1182.32 352.22 1182 350.66 1182 349C1182 347.34 1182.32 345.78 1182.95 344.32C1183.58 342.86 1184.43 341.59 1185.51 340.51C1186.59 339.43 1187.86 338.575 1189.32 337.944C1190.78 337.315 1192.34 337 1194 337C1195.66 337 1197.22 337.315 1198.68 337.944C1200.14 338.575 1201.41 339.43 1202.49 340.51C1203.57 341.59 1204.42 342.86 1205.05 344.32C1205.68 345.78 1206 347.34 1206 349C1206 350.66 1205.68 352.22 1205.05 353.68C1204.42 355.14 1203.57 356.41 1202.49 357.49C1201.41 358.57 1200.14 359.425 1198.68 360.054C1197.22 360.685 1195.66 361 1194 361Z" fill="black"/>
<path d="M1192.21 352.467C1191.72 351.967 1191.48 351.359 1191.48 350.645C1191.48 350.168 1191.58 349.736 1191.8 349.35C1192.02 348.963 1192.34 348.672 1192.75 348.477C1192.34 348.203 1192.08 347.908 1191.95 347.592C1191.83 347.271 1191.77 346.973 1191.77 346.695C1191.77 346.078 1192 345.553 1192.47 345.119C1192.93 344.682 1193.59 344.463 1194.44 344.463C1195.28 344.463 1195.94 344.682 1196.4 345.119C1196.87 345.553 1197.1 346.078 1197.1 346.695C1197.1 346.973 1197.04 347.271 1196.91 347.592C1196.79 347.908 1196.53 348.184 1196.12 348.418C1196.54 348.652 1196.85 348.963 1197.06 349.35C1197.27 349.736 1197.38 350.168 1197.38 350.645C1197.38 351.359 1197.11 351.969 1196.58 352.473C1196.05 352.973 1195.31 353.223 1194.37 353.223C1193.42 353.223 1192.7 352.971 1192.21 352.467ZM1193.21 350.533C1193.21 350.951 1193.32 351.275 1193.53 351.506C1193.75 351.736 1194.05 351.852 1194.44 351.852C1194.82 351.852 1195.12 351.736 1195.33 351.506C1195.55 351.275 1195.66 350.951 1195.66 350.533C1195.66 350.1 1195.55 349.771 1195.33 349.549C1195.11 349.322 1194.81 349.209 1194.44 349.209C1194.06 349.209 1193.76 349.322 1193.54 349.549C1193.32 349.771 1193.21 350.1 1193.21 350.533ZM1193.65 347.639C1193.84 347.834 1194.1 347.932 1194.44 347.932C1194.78 347.932 1195.04 347.834 1195.22 347.639C1195.41 347.443 1195.5 347.191 1195.5 346.883C1195.5 346.547 1195.41 346.285 1195.22 346.098C1195.04 345.906 1194.78 345.811 1194.44 345.811C1194.1 345.811 1193.84 345.906 1193.64 346.098C1193.46 346.285 1193.36 346.547 1193.36 346.883C1193.36 347.191 1193.46 347.443 1193.65 347.639Z" fill="white"/>
<path d="M1116 349L1182 349" stroke="black"/>
<mask id="path-51-outside-13_151_839" maskUnits="userSpaceOnUse" x="245" y="97" width="320" height="99" fill="black">
<rect fill="white" x="245" y="97" width="320" height="99"/>
<path d="M245 97H565V195H245V97Z"/>
</mask>
<path d="M245 97H565V195H245V97Z" fill="white"/>
<rect width="320" height="34" transform="translate(245 97)" fill="#2774AE"/>
<path fill-rule="evenodd" clip-rule="evenodd" d="M312.222 106.003L312.428 106L318 121.85H314.841L314.124 119.446H308.377L307.23 121.85H304.063L312.222 106.003ZM311.885 111.717C311.85 111.871 311.763 112.137 311.664 112.352C311.624 112.45 309.608 116.883 309.608 116.883H313.37C313.37 116.883 312.209 113.046 312.046 112.355C311.983 112.132 311.949 111.905 311.932 111.714C311.932 111.714 311.886 111.714 311.885 111.717ZM289.832 106.407C284.727 106.407 281.771 110.023 281.381 114.384C281.018 118.467 283.332 122.204 288.384 122.204C289.744 122.204 291.096 121.847 292.548 121.063L292.879 117.364C291.387 118.848 289.962 119.233 288.618 119.233C285.541 119.233 284.137 117.032 284.378 114.325C284.628 111.544 286.37 109.348 289.547 109.348C290.838 109.348 292.236 109.598 293.415 111.14L293.755 107.537C292.466 106.712 291.177 106.407 289.832 106.407ZM268.005 116.077C267.998 116.483 267.989 117.045 268.043 117.461C268.41 120.244 270.336 122.169 273.328 122.169C277.164 122.169 279.536 119.502 279.87 115.941L280.142 112.888L280.695 106.694H277.709L276.861 116.059C276.684 117.819 275.609 119.257 273.576 119.257C271.587 119.257 270.805 117.843 270.981 115.859L271.8 106.694H268.812L268.008 115.779C268.008 115.862 268.007 115.963 268.005 116.077ZM296.141 106.694H299.12L298.033 119.032H302.302C302.602 119.032 303.62 119.015 303.896 119C303.881 119.148 303.625 121.85 303.625 121.85H294.789L296.141 106.694Z" fill="white"/>
<path d="M534.097 169V167H552.041V169H534.097ZM534.097 164V162H552.041V164H534.097ZM534.097 159V157H552.041V159H534.097Z" fill="#00598C"/>
<path d="M279.814 173H271.133V152.848H279.814C281.063 152.866 282.102 153.012 282.932 153.285C284.344 153.75 285.488 154.602 286.363 155.842C287.065 156.844 287.544 157.929 287.799 159.096C288.054 160.262 288.182 161.374 288.182 162.432C288.182 165.111 287.644 167.381 286.568 169.24C285.11 171.747 282.859 173 279.814 173ZM282.945 157.988C282.298 156.895 281.018 156.348 279.104 156.348H275.221V169.5H279.104C281.09 169.5 282.476 168.52 283.26 166.561C283.688 165.485 283.902 164.204 283.902 162.719C283.902 160.668 283.583 159.091 282.945 157.988ZM303.809 168.625C303.708 169.509 303.248 170.407 302.428 171.318C301.152 172.768 299.365 173.492 297.068 173.492C295.173 173.492 293.5 172.882 292.051 171.66C290.602 170.439 289.877 168.452 289.877 165.699C289.877 163.12 290.529 161.142 291.832 159.766C293.145 158.389 294.844 157.701 296.932 157.701C298.171 157.701 299.288 157.934 300.281 158.398C301.275 158.863 302.095 159.597 302.742 160.6C303.326 161.484 303.704 162.509 303.877 163.676C303.977 164.359 304.018 165.344 304 166.629H293.801C293.855 168.124 294.325 169.172 295.209 169.773C295.747 170.147 296.394 170.334 297.15 170.334C297.952 170.334 298.604 170.106 299.105 169.65C299.379 169.404 299.62 169.062 299.83 168.625H303.809ZM299.953 164.059C299.889 163.029 299.575 162.249 299.01 161.721C298.454 161.183 297.761 160.914 296.932 160.914C296.029 160.914 295.327 161.197 294.826 161.762C294.334 162.327 294.024 163.092 293.896 164.059H299.953ZM319.121 159.697C320.324 160.982 320.926 162.869 320.926 165.357C320.926 167.982 320.333 169.983 319.148 171.359C317.973 172.736 316.455 173.424 314.596 173.424C313.411 173.424 312.426 173.128 311.643 172.535C311.214 172.207 310.795 171.729 310.385 171.1V178.865H306.529V158.098H310.262V160.299C310.681 159.652 311.128 159.141 311.602 158.768C312.467 158.102 313.497 157.77 314.691 157.77C316.432 157.77 317.909 158.412 319.121 159.697ZM316.906 165.549C316.906 164.4 316.642 163.384 316.113 162.5C315.594 161.616 314.746 161.174 313.57 161.174C312.158 161.174 311.187 161.844 310.658 163.184C310.385 163.895 310.248 164.797 310.248 165.891C310.248 167.622 310.708 168.839 311.629 169.541C312.176 169.951 312.823 170.156 313.57 170.156C314.655 170.156 315.48 169.737 316.045 168.898C316.619 168.06 316.906 166.943 316.906 165.549ZM324.316 159.711C325.346 158.398 327.115 157.742 329.621 157.742C331.253 157.742 332.702 158.066 333.969 158.713C335.236 159.36 335.869 160.581 335.869 162.377V169.213C335.869 169.687 335.878 170.261 335.896 170.936C335.924 171.446 336.001 171.792 336.129 171.975C336.257 172.157 336.448 172.307 336.703 172.426V173H332.465C332.346 172.699 332.264 172.417 332.219 172.152C332.173 171.888 332.137 171.587 332.109 171.25C331.572 171.833 330.952 172.33 330.25 172.74C329.411 173.223 328.464 173.465 327.406 173.465C326.057 173.465 324.941 173.082 324.057 172.316C323.182 171.542 322.744 170.448 322.744 169.035C322.744 167.203 323.451 165.877 324.863 165.057C325.638 164.61 326.777 164.291 328.281 164.1L329.607 163.936C330.327 163.844 330.842 163.73 331.152 163.594C331.708 163.357 331.986 162.988 331.986 162.486C331.986 161.876 331.772 161.456 331.344 161.229C330.924 160.992 330.305 160.873 329.484 160.873C328.564 160.873 327.912 161.101 327.529 161.557C327.256 161.894 327.074 162.35 326.982 162.924H323.223C323.305 161.62 323.669 160.549 324.316 159.711ZM327.215 170.184C327.579 170.484 328.026 170.635 328.555 170.635C329.393 170.635 330.163 170.389 330.865 169.896C331.576 169.404 331.945 168.507 331.973 167.203V165.754C331.727 165.909 331.476 166.036 331.221 166.137C330.975 166.228 330.633 166.314 330.195 166.396L329.32 166.561C328.5 166.706 327.912 166.884 327.557 167.094C326.955 167.449 326.654 168.001 326.654 168.748C326.654 169.413 326.841 169.892 327.215 170.184ZM346.834 161.693C345.266 161.693 344.214 162.204 343.676 163.225C343.375 163.799 343.225 164.683 343.225 165.877V173H339.301V158.098H343.02V160.695C343.621 159.702 344.145 159.023 344.592 158.658C345.321 158.048 346.269 157.742 347.436 157.742C347.508 157.742 347.568 157.747 347.613 157.756C347.668 157.756 347.782 157.76 347.955 157.77V161.762C347.709 161.734 347.49 161.716 347.299 161.707C347.107 161.698 346.952 161.693 346.834 161.693ZM357.074 170.225V173.137L355.229 173.205C353.387 173.269 352.13 172.95 351.455 172.248C351.018 171.801 350.799 171.113 350.799 170.184V161.01H348.721V158.234H350.799V154.078H354.654V158.234H357.074V161.01H354.654V168.885C354.654 169.495 354.732 169.878 354.887 170.033C355.042 170.179 355.516 170.252 356.309 170.252C356.427 170.252 356.55 170.252 356.678 170.252C356.814 170.243 356.947 170.234 357.074 170.225ZM367.943 162.199C367.615 161.479 366.973 161.119 366.016 161.119C364.904 161.119 364.156 161.479 363.773 162.199C363.564 162.609 363.459 163.22 363.459 164.031V173H359.508V158.125H363.295V160.299C363.778 159.524 364.234 158.973 364.662 158.645C365.419 158.061 366.398 157.77 367.602 157.77C368.741 157.77 369.661 158.02 370.363 158.521C370.928 158.986 371.357 159.583 371.648 160.312C372.159 159.438 372.792 158.795 373.549 158.385C374.351 157.975 375.244 157.77 376.229 157.77C376.885 157.77 377.532 157.897 378.17 158.152C378.808 158.408 379.387 158.854 379.906 159.492C380.326 160.012 380.608 160.65 380.754 161.406C380.845 161.908 380.891 162.641 380.891 163.607L380.863 173H376.871V163.512C376.871 162.947 376.78 162.482 376.598 162.117C376.251 161.424 375.613 161.078 374.684 161.078C373.608 161.078 372.865 161.525 372.455 162.418C372.245 162.892 372.141 163.462 372.141 164.127V173H368.217V164.127C368.217 163.243 368.126 162.6 367.943 162.199ZM397.242 168.625C397.142 169.509 396.682 170.407 395.861 171.318C394.585 172.768 392.799 173.492 390.502 173.492C388.606 173.492 386.934 172.882 385.484 171.66C384.035 170.439 383.311 168.452 383.311 165.699C383.311 163.12 383.962 161.142 385.266 159.766C386.578 158.389 388.278 157.701 390.365 157.701C391.605 157.701 392.721 157.934 393.715 158.398C394.708 158.863 395.529 159.597 396.176 160.6C396.759 161.484 397.137 162.509 397.311 163.676C397.411 164.359 397.452 165.344 397.434 166.629H387.234C387.289 168.124 387.758 169.172 388.643 169.773C389.18 170.147 389.827 170.334 390.584 170.334C391.386 170.334 392.038 170.106 392.539 169.65C392.812 169.404 393.054 169.062 393.264 168.625H397.242ZM393.387 164.059C393.323 163.029 393.008 162.249 392.443 161.721C391.887 161.183 391.195 160.914 390.365 160.914C389.463 160.914 388.761 161.197 388.26 161.762C387.768 162.327 387.458 163.092 387.33 164.059H393.387ZM407.086 160.982C405.764 160.982 404.857 161.543 404.365 162.664C404.11 163.257 403.982 164.013 403.982 164.934V173H400.1V158.125H403.859V160.299C404.361 159.533 404.835 158.982 405.281 158.645C406.083 158.043 407.1 157.742 408.33 157.742C409.87 157.742 411.128 158.148 412.104 158.959C413.088 159.761 413.58 161.096 413.58 162.965V173H409.588V163.936C409.588 163.152 409.483 162.55 409.273 162.131C408.891 161.365 408.161 160.982 407.086 160.982ZM424.012 170.225V173.137L422.166 173.205C420.325 173.269 419.067 172.95 418.393 172.248C417.955 171.801 417.736 171.113 417.736 170.184V161.01H415.658V158.234H417.736V154.078H421.592V158.234H424.012V161.01H421.592V168.885C421.592 169.495 421.669 169.878 421.824 170.033C421.979 170.179 422.453 170.252 423.246 170.252C423.365 170.252 423.488 170.252 423.615 170.252C423.752 170.243 423.884 170.234 424.012 170.225ZM449.264 152.848V156.416H443.234V173H438.996V156.416H432.939V152.848H449.264ZM454.938 158.098V173H450.986V158.098H454.938ZM454.938 152.725V156.32H450.986V152.725H454.938ZM465.547 170.225V173.137L463.701 173.205C461.86 173.269 460.602 172.95 459.928 172.248C459.49 171.801 459.271 171.113 459.271 170.184V161.01H457.193V158.234H459.271V154.078H463.127V158.234H465.547V161.01H463.127V168.885C463.127 169.495 463.204 169.878 463.359 170.033C463.514 170.179 463.988 170.252 464.781 170.252C464.9 170.252 465.023 170.252 465.15 170.252C465.287 170.243 465.419 170.234 465.547 170.225ZM468.131 152.848H472.027V173H468.131V152.848ZM488.598 168.625C488.497 169.509 488.037 170.407 487.217 171.318C485.941 172.768 484.154 173.492 481.857 173.492C479.962 173.492 478.289 172.882 476.84 171.66C475.391 170.439 474.666 168.452 474.666 165.699C474.666 163.12 475.318 161.142 476.621 159.766C477.934 158.389 479.633 157.701 481.721 157.701C482.96 157.701 484.077 157.934 485.07 158.398C486.064 158.863 486.884 159.597 487.531 160.6C488.115 161.484 488.493 162.509 488.666 163.676C488.766 164.359 488.807 165.344 488.789 166.629H478.59C478.645 168.124 479.114 169.172 479.998 169.773C480.536 170.147 481.183 170.334 481.939 170.334C482.742 170.334 483.393 170.106 483.895 169.65C484.168 169.404 484.41 169.062 484.619 168.625H488.598ZM484.742 164.059C484.678 163.029 484.364 162.249 483.799 161.721C483.243 161.183 482.55 160.914 481.721 160.914C480.818 160.914 480.117 161.197 479.615 161.762C479.123 162.327 478.813 163.092 478.686 164.059H484.742Z" fill="#333333"/>
<path d="M245 97H565H245ZM565 196H245V194H565V196ZM245 195V97V195ZM565 97V195V97Z" fill="#CCCCCC" mask="url(#path-51-outside-13_151_839)"/>
<path d="M737 232C735.34 232 733.78 231.685 732.32 231.054C730.86 230.425 729.59 229.57 728.51 228.49C727.43 227.41 726.575 226.14 725.946 224.68C725.315 223.22 725 221.66 725 220C725 218.34 725.315 216.78 725.946 215.32C726.575 213.86 727.43 212.59 728.51 211.51C729.59 210.43 730.86 209.575 732.32 208.944C733.78 208.315 735.34 208 737 208C738.66 208 740.22 208.315 741.68 208.944C743.14 209.575 744.41 210.43 745.49 211.51C746.57 212.59 747.425 213.86 748.054 215.32C748.685 216.78 749 218.34 749 220C749 221.66 748.685 223.22 748.054 224.68C747.425 226.14 746.57 227.41 745.49 228.49C744.41 229.57 743.14 230.425 741.68 231.054C740.22 231.685 738.66 232 737 232Z" fill="black"/>
<path d="M738.332 217.232C738.133 216.994 737.848 216.875 737.477 216.875C736.969 216.875 736.623 217.064 736.439 217.443C736.334 217.662 736.271 218.01 736.252 218.486H734.629C734.656 217.764 734.787 217.18 735.021 216.734C735.467 215.887 736.258 215.463 737.395 215.463C738.293 215.463 739.008 215.713 739.539 216.213C740.07 216.709 740.336 217.367 740.336 218.188C740.336 218.816 740.148 219.375 739.773 219.863C739.527 220.188 739.123 220.549 738.561 220.947L737.893 221.422C737.475 221.719 737.188 221.934 737.031 222.066C736.879 222.199 736.75 222.354 736.645 222.529H740.354V224H734.535C734.551 223.391 734.682 222.834 734.928 222.33C735.166 221.764 735.729 221.164 736.615 220.531C737.385 219.98 737.883 219.586 738.109 219.348C738.457 218.977 738.631 218.57 738.631 218.129C738.631 217.77 738.531 217.471 738.332 217.232Z" fill="white"/>
<path d="M818 220L749 220" stroke="black"/>
<path d="M737 273C735.34 273 733.78 272.685 732.32 272.054C730.86 271.425 729.59 270.57 728.51 269.49C727.43 268.41 726.575 267.14 725.946 265.68C725.315 264.22 725 262.66 725 261C725 259.34 725.315 257.78 725.946 256.32C726.575 254.86 727.43 253.59 728.51 252.51C729.59 251.43 730.86 250.575 732.32 249.944C733.78 249.315 735.34 249 737 249C738.66 249 740.22 249.315 741.68 249.944C743.14 250.575 744.41 251.43 745.49 252.51C746.57 253.59 747.425 254.86 748.054 256.32C748.685 257.78 749 259.34 749 261C749 262.66 748.685 264.22 748.054 265.68C747.425 267.14 746.57 268.41 745.49 269.49C744.41 270.57 743.14 271.425 741.68 272.054C740.22 272.685 738.66 273 737 273Z" fill="black"/>
<path d="M736.457 258.197C736.27 258.447 736.18 258.781 736.188 259.199H734.629C734.645 258.777 734.717 258.377 734.846 257.998C734.982 257.666 735.197 257.359 735.49 257.078C735.709 256.879 735.969 256.727 736.27 256.621C736.57 256.516 736.939 256.463 737.377 256.463C738.189 256.463 738.844 256.674 739.34 257.096C739.84 257.514 740.09 258.076 740.09 258.783C740.09 259.283 739.941 259.705 739.645 260.049C739.457 260.264 739.262 260.41 739.059 260.488C739.211 260.488 739.43 260.619 739.715 260.881C740.141 261.275 740.354 261.814 740.354 262.498C740.354 263.217 740.104 263.85 739.604 264.396C739.107 264.939 738.371 265.211 737.395 265.211C736.191 265.211 735.355 264.818 734.887 264.033C734.641 263.615 734.504 263.068 734.477 262.393H736.117C736.117 262.732 736.172 263.014 736.281 263.236C736.484 263.646 736.854 263.852 737.389 263.852C737.717 263.852 738.002 263.74 738.244 263.518C738.49 263.291 738.613 262.967 738.613 262.545C738.613 261.986 738.387 261.613 737.934 261.426C737.676 261.32 737.27 261.268 736.715 261.268V260.072C737.258 260.064 737.637 260.012 737.852 259.914C738.223 259.75 738.408 259.418 738.408 258.918C738.408 258.594 738.312 258.33 738.121 258.127C737.934 257.924 737.668 257.822 737.324 257.822C736.93 257.822 736.641 257.947 736.457 258.197Z" fill="white"/>
<path d="M818 261L749 261" stroke="black"/>
<path d="M737 317C735.34 317 733.78 316.685 732.32 316.054C730.86 315.425 729.59 314.57 728.51 313.49C727.43 312.41 726.575 311.14 725.946 309.68C725.315 308.22 725 306.66 725 305C725 303.34 725.315 301.78 725.946 300.32C726.575 298.86 727.43 297.59 728.51 296.51C729.59 295.43 730.86 294.575 732.32 293.944C733.78 293.315 735.34 293 737 293C738.66 293 740.22 293.315 741.68 293.944C743.14 294.575 744.41 295.43 745.49 296.51C746.57 297.59 747.425 298.86 748.054 300.32C748.685 301.78 749 303.34 749 305C749 306.66 748.685 308.22 748.054 309.68C747.425 311.14 746.57 312.41 745.49 313.49C744.41 314.57 743.14 315.425 741.68 316.054C740.22 316.685 738.66 317 737 317Z" fill="black"/>
<path d="M737.359 304.781C737.156 304.781 736.98 304.807 736.832 304.857C736.57 304.951 736.373 305.125 736.24 305.379L734.74 305.309L735.338 300.615H740.02V302.033H736.545L736.24 303.891C736.498 303.723 736.699 303.611 736.844 303.557C737.086 303.467 737.381 303.422 737.729 303.422C738.432 303.422 739.045 303.658 739.568 304.131C740.092 304.604 740.354 305.291 740.354 306.193C740.354 306.979 740.102 307.68 739.598 308.297C739.094 308.914 738.34 309.223 737.336 309.223C736.527 309.223 735.863 309.006 735.344 308.572C734.824 308.139 734.535 307.523 734.477 306.727H736.141C736.207 307.09 736.334 307.371 736.521 307.57C736.709 307.766 736.982 307.863 737.342 307.863C737.756 307.863 738.07 307.719 738.285 307.43C738.504 307.137 738.613 306.77 738.613 306.328C738.613 305.895 738.512 305.529 738.309 305.232C738.105 304.932 737.789 304.781 737.359 304.781Z" fill="white"/>
<path d="M818 305L749 305" stroke="black"/>
<path d="M737 361C735.34 361 733.78 360.685 732.32 360.054C730.86 359.425 729.59 358.57 728.51 357.49C727.43 356.41 726.575 355.14 725.946 353.68C725.315 352.22 725 350.66 725 349C725 347.34 725.315 345.78 725.946 344.32C726.575 342.86 727.43 341.59 728.51 340.51C729.59 339.43 730.86 338.575 732.32 337.944C733.78 337.315 735.34 337 737 337C738.66 337 740.22 337.315 741.68 337.944C743.14 338.575 744.41 339.43 745.49 340.51C746.57 341.59 747.425 342.86 748.054 344.32C748.685 345.78 749 347.34 749 349C749 350.66 748.685 352.22 748.054 353.68C747.425 355.14 746.57 356.41 745.49 357.49C744.41 358.57 743.14 359.425 741.68 360.054C740.22 360.685 738.66 361 737 361Z" fill="black"/>
<path d="M739.445 347.234C739 347.867 738.627 348.52 738.326 349.191C738.088 349.719 737.873 350.363 737.682 351.125C737.49 351.887 737.395 352.512 737.395 353H735.66C735.711 351.477 736.211 349.893 737.16 348.248C737.773 347.229 738.287 346.518 738.701 346.115H734.465L734.488 344.615H740.488V345.922C740.238 346.168 739.891 346.605 739.445 347.234Z" fill="white"/>
<path d="M818 349L749 349" stroke="black"/>
<path d="M737 405C735.34 405 733.78 404.685 732.32 404.054C730.86 403.425 729.59 402.57 728.51 401.49C727.43 400.41 726.575 399.14 725.946 397.68C725.315 396.22 725 394.66 725 393C725 391.34 725.315 389.78 725.946 388.32C726.575 386.86 727.43 385.59 728.51 384.51C729.59 383.43 730.86 382.575 732.32 381.944C733.78 381.315 735.34 381 737 381C738.66 381 740.22 381.315 741.68 381.944C743.14 382.575 744.41 383.43 745.49 384.51C746.57 385.59 747.425 386.86 748.054 388.32C748.685 389.78 749 391.34 749 393C749 394.66 748.685 396.22 748.054 397.68C747.425 399.14 746.57 400.41 745.49 401.49C744.41 402.57 743.14 403.425 741.68 404.054C740.22 404.685 738.66 405 737 405Z" fill="black"/>
<path d="M737.277 397.246C736.641 397.246 736.068 397.059 735.561 396.684C735.053 396.305 734.762 395.754 734.688 395.031H736.352C736.391 395.281 736.496 395.484 736.668 395.641C736.84 395.797 737.068 395.875 737.354 395.875C737.904 395.875 738.291 395.57 738.514 394.961C738.635 394.625 738.711 394.135 738.742 393.49C738.59 393.682 738.428 393.828 738.256 393.93C737.943 394.117 737.559 394.211 737.102 394.211C736.426 394.211 735.826 393.979 735.303 393.514C734.779 393.045 734.518 392.371 734.518 391.492C734.518 390.582 734.779 389.846 735.303 389.283C735.83 388.717 736.514 388.434 737.354 388.434C738.646 388.434 739.533 389.006 740.014 390.15C740.287 390.799 740.424 391.652 740.424 392.711C740.424 393.738 740.293 394.596 740.031 395.283C739.531 396.592 738.613 397.246 737.277 397.246ZM736.691 390.068C736.371 390.318 736.211 390.742 736.211 391.34C736.211 391.844 736.312 392.223 736.516 392.477C736.723 392.727 737.039 392.852 737.465 392.852C737.695 392.852 737.912 392.785 738.115 392.652C738.494 392.41 738.684 391.99 738.684 391.393C738.684 390.912 738.57 390.531 738.344 390.25C738.121 389.969 737.814 389.828 737.424 389.828C737.139 389.828 736.895 389.908 736.691 390.068Z" fill="white"/>
<path d="M818 393L749 393" stroke="black"/>
<path d="M737 537C735.34 537 733.78 536.685 732.32 536.054C730.86 535.425 729.59 534.57 728.51 533.49C727.43 532.41 726.575 531.14 725.946 529.68C725.315 528.22 725 526.66 725 525C725 523.34 725.315 521.78 725.946 520.32C726.575 518.86 727.43 517.59 728.51 516.51C729.59 515.43 730.86 514.575 732.32 513.944C733.78 513.315 735.34 513 737 513C738.66 513 740.22 513.315 741.68 513.944C743.14 514.575 744.41 515.43 745.49 516.51C746.57 517.59 747.425 518.86 748.054 520.32C748.685 521.78 749 523.34 749 525C749 526.66 748.685 528.22 748.054 529.68C747.425 531.14 746.57 532.41 745.49 533.49C744.41 534.57 743.14 535.425 741.68 536.054C740.22 536.685 738.66 537 737 537Z" fill="black"/>
<path d="M734.861 529H733.15V523.141H731.152V522.004C731.68 521.98 732.049 521.945 732.26 521.898C732.596 521.824 732.869 521.676 733.08 521.453C733.225 521.301 733.334 521.098 733.408 520.844C733.451 520.691 733.473 520.578 733.473 520.504H734.861V529ZM740.305 529.211C739.223 529.211 738.463 528.832 738.025 528.074C737.592 527.316 737.375 526.236 737.375 524.834C737.375 523.432 737.592 522.35 738.025 521.588C738.463 520.826 739.223 520.445 740.305 520.445C741.387 520.445 742.146 520.826 742.584 521.588C743.018 522.35 743.234 523.432 743.234 524.834C743.234 526.236 743.016 527.316 742.578 528.074C742.145 528.832 741.387 529.211 740.305 529.211ZM741.283 527.072C741.436 526.557 741.512 525.811 741.512 524.834C741.512 523.811 741.434 523.053 741.277 522.561C741.125 522.068 740.801 521.822 740.305 521.822C739.809 521.822 739.48 522.068 739.32 522.561C739.16 523.053 739.08 523.811 739.08 524.834C739.08 525.811 739.16 526.559 739.32 527.078C739.48 527.594 739.809 527.852 740.305 527.852C740.801 527.852 741.127 527.592 741.283 527.072Z" fill="white"/>
<path d="M818 525L749 525" stroke="black"/>
<path d="M633 176C631.34 176 629.78 175.685 628.32 175.054C626.86 174.425 625.59 173.57 624.51 172.49C623.43 171.41 622.575 170.14 621.946 168.68C621.315 167.22 621 165.66 621 164C621 162.34 621.315 160.78 621.946 159.32C622.575 157.86 623.43 156.59 624.51 155.51C625.59 154.43 626.86 153.575 628.32 152.944C629.78 152.315 631.34 152 633 152C634.66 152 636.22 152.315 637.68 152.944C639.14 153.575 640.41 154.43 641.49 155.51C642.57 156.59 643.425 157.86 644.054 159.32C644.685 160.78 645 162.34 645 164C645 165.66 644.685 167.22 644.054 168.68C643.425 170.14 642.57 171.41 641.49 172.49C640.41 173.57 639.14 174.425 637.68 175.054C636.22 175.685 634.66 176 633 176Z" fill="black"/>
<path d="M634.701 168H632.99V162.141H630.992V161.004C631.52 160.98 631.889 160.945 632.1 160.898C632.436 160.824 632.709 160.676 632.92 160.453C633.064 160.301 633.174 160.098 633.248 159.844C633.291 159.691 633.312 159.578 633.312 159.504H634.701V168Z" fill="white"/>
<path d="M546 164L621 164" stroke="black"/>
<path d="M737 581C735.34 581 733.78 580.685 732.32 580.054C730.86 579.425 729.59 578.57 728.51 577.49C727.43 576.41 726.575 575.14 725.946 573.68C725.315 572.22 725 570.66 725 569C725 567.34 725.315 565.78 725.946 564.32C726.575 562.86 727.43 561.59 728.51 560.51C729.59 559.43 730.86 558.575 732.32 557.944C733.78 557.315 735.34 557 737 557C738.66 557 740.22 557.315 741.68 557.944C743.14 558.575 744.41 559.43 745.49 560.51C746.57 561.59 747.425 562.86 748.054 564.32C748.685 565.78 749 567.34 749 569C749 570.66 748.685 572.22 748.054 573.68C747.425 575.14 746.57 576.41 745.49 577.49C744.41 578.57 743.14 579.425 741.68 580.054C740.22 580.685 738.66 581 737 581Z" fill="black"/>
<path d="M735.689 573H733.979V567.141H731.98V566.004C732.508 565.98 732.877 565.945 733.088 565.898C733.424 565.824 733.697 565.676 733.908 565.453C734.053 565.301 734.162 565.098 734.236 564.844C734.279 564.691 734.301 564.578 734.301 564.504H735.689V573ZM741.713 573H740.002V567.141H738.004V566.004C738.531 565.98 738.9 565.945 739.111 565.898C739.447 565.824 739.721 565.676 739.932 565.453C740.076 565.301 740.186 565.098 740.26 564.844C740.303 564.691 740.324 564.578 740.324 564.504H741.713V573Z" fill="white"/>
<path d="M818 569L749 569" stroke="black"/>
</svg>
